<?xml version="1.0" encoding="UTF-8" standalone="no"?>
<!DOCTYPE svg PUBLIC "-//W3C//DTD SVG 1.0//EN" "http://www.w3.org/TR/2001/REC-SVG-20010904/DTD/svg10.dtd">
<svg xmlns="http://www.w3.org/2000/svg" version="1.0" viewBox="0.00 0.00 200.00 200.00">
<g stroke-width="2.00" fill="none" stroke-linecap="butt">
<path stroke="#404a59" vector-effect="non-scaling-stroke" d="
  M 91.78 16.17
  Q 91.93 15.77 91.69 15.35
  A 0.29 0.26 -54.1 0 0 91.20 15.46
  Q 91.07 15.89 91.30 16.19
  A 0.29 0.25 38.5 0 0 91.78 16.17"
/>
<path stroke="#20102d" vector-effect="non-scaling-stroke" d="
  M 59.66 16.78
  Q 60.36 16.98 60.72 16.57
  A 0.46 0.45 -63.7 0 0 60.48 15.82
  Q 60.15 15.75 59.56 16.19
  A 0.33 0.33 0.0 0 0 59.66 16.78"
/>
<path stroke="#404a59" vector-effect="non-scaling-stroke" d="
  M 158.60 18.47
  A 0.80 0.64 -20.0 0 0 157.59 18.13
  Q 157.06 18.35 157.12 18.71
  A 0.74 0.64 -29.4 0 0 158.32 18.95
  Q 158.65 18.63 158.60 18.47"
/>
<path stroke="#404a59" vector-effect="non-scaling-stroke" d="
  M 20.7003 19.1334
  A 0.72 0.53 -84.4 0 0 20.1025 19.7983
  A 0.72 0.53 -84.4 0 0 20.5597 20.5666
  A 0.72 0.53 -84.4 0 0 21.1575 19.9017
  A 0.72 0.53 -84.4 0 0 20.7003 19.1334"
/>
<path stroke="#404a59" vector-effect="non-scaling-stroke" d="
  M 179.15 21.22
  Q 178.80 21.07 178.47 21.10
  A 0.32 0.32 0.0 0 0 178.36 21.70
  Q 178.76 21.91 179.15 21.68
  A 0.27 0.25 -47.5 0 0 179.15 21.22"
/>
<path stroke="#37132c" vector-effect="non-scaling-stroke" d="
  M 123.28 22.82
  Q 123.52 22.72 123.63 22.57
  A 0.39 0.24 -65.8 0 0 123.55 22.00
  Q 123.14 22.01 122.91 22.39
  A 0.30 0.30 0.0 0 0 123.28 22.82"
/>
<path stroke="#404a59" vector-effect="non-scaling-stroke" d="
  M 106.25 23.25
  A 0.52 0.41 -74.4 0 0 106.98 22.72
  Q 106.92 22.32 106.78 22.27
  C 106.25 22.06 105.99 22.92 106.25 23.25"
/>
<path stroke="#404a59" vector-effect="non-scaling-stroke" d="
  M 70.05 26.13
  Q 69.60 26.03 69.37 26.16
  A 0.39 0.37 -55.5 0 0 69.49 26.87
  Q 69.93 26.92 70.12 26.83
  A 0.37 0.37 0.0 0 0 70.05 26.13"
/>
<path stroke="#404a59" vector-effect="non-scaling-stroke" d="
  M 44.60 28.40
  A 0.68 0.47 8.1 0 0 45.42 29.16
  Q 45.77 29.08 45.78 28.81
  Q 45.80 28.35 45.54 28.27
  Q 44.93 28.08 44.60 28.40"
/>
<path stroke="#404a59" vector-effect="non-scaling-stroke" d="
  M 132.26 30.31
  A 0.27 0.27 0.0 0 0 132.70 30.19
  Q 132.89 29.65 132.71 29.39
  A 0.28 0.27 36.4 0 0 132.23 29.46
  Q 132.01 30.09 132.26 30.31"
/>
<path stroke="#404a59" vector-effect="non-scaling-stroke" d="
  M 114.90 31.41
  L 115.26 30.91
  A 0.72 0.72 0.0 0 0 114.47 29.80
  Q 113.06 30.21 114.13 31.45
  A 0.49 0.49 0.0 0 0 114.90 31.41"
/>
<path stroke="#404a59" vector-effect="non-scaling-stroke" d="
  M 31.8439 31.5562
  A 0.88 0.76 -39.0 0 0 30.6817 31.5194
  A 0.88 0.76 -39.0 0 0 30.4761 32.6638
  A 0.88 0.76 -39.0 0 0 31.6383 32.7006
  A 0.88 0.76 -39.0 0 0 31.8439 31.5562"
/>
<path stroke="#37132c" vector-effect="non-scaling-stroke" d="
  M 95.77 31.46
  A 0.29 0.29 0.0 0 0 95.48 31.17
  A 0.29 0.29 0.0 0 0 95.19 31.46
  A 0.29 0.29 0.0 0 0 95.48 31.75
  A 0.29 0.29 0.0 0 0 95.77 31.46"
/>
<path stroke="#404a59" vector-effect="non-scaling-stroke" d="
  M 144.3263 33.1702
  A 0.85 0.63 -88.9 0 0 143.6801 34.0079
  A 0.85 0.63 -88.9 0 0 144.2937 34.8698
  A 0.85 0.63 -88.9 0 0 144.9399 34.0321
  A 0.85 0.63 -88.9 0 0 144.3263 33.1702"
/>
<path stroke="#404a59" vector-effect="non-scaling-stroke" d="
  M 82.62 34.73
  A 0.33 0.32 16.4 0 0 82.06 35.03
  Q 82.11 35.19 82.16 35.29
  A 0.33 0.33 0.0 0 0 82.78 35.19
  Q 82.83 34.96 82.62 34.73"
/>
<path stroke="#404a59" vector-effect="non-scaling-stroke" d="
  M 46.72 42.33
  A 7.53 7.34 -56.3 0 0 44.19 48.50"
/>
<path stroke="#818487" vector-effect="non-scaling-stroke" d="
  M 44.19 48.50
  A 7.49 7.32 -49.8 0 0 46.98 53.78
  A 7.43 7.18 -43.7 0 0 49.84 55.11"
/>
<path stroke="#404a59" vector-effect="non-scaling-stroke" d="
  M 49.84 55.11
  A 7.50 7.31 -53.1 0 0 57.69 51.79"
/>
<path stroke="#818487" vector-effect="non-scaling-stroke" d="
  M 57.69 51.79
  A 7.53 7.31 -53.7 0 0 57.69 43.54
  A 7.51 7.32 -54.5 0 0 46.72 42.33"
/>
<path stroke="#bec5cc" vector-effect="non-scaling-stroke" d="
  M 57.69 51.79
  Q 51.73 53.29 48.67 50.56
  Q 45.52 47.75 46.72 42.33"
/>
<path stroke="#bec5cc" vector-effect="non-scaling-stroke" d="
  M 49.84 55.11
  Q 46.23 52.73 44.19 48.50"
/>
<path stroke="#224873" vector-effect="non-scaling-stroke" d="
  M 96.04 43.45
  Q 89.86 42.71 84.52 42.39
  Q 76.95 41.93 61.48 43.77
  A 0.82 0.81 -3.1 0 0 60.75 44.58
  L 60.75 44.68
  A 0.56 0.55 85.6 0 0 61.39 45.23
  Q 78.55 42.76 95.98 43.94
  A 0.12 0.12 0.0 0 0 96.11 43.82
  L 96.11 43.54
  A 0.09 0.08 -86.4 0 0 96.04 43.45"
/>
<path stroke="#404a59" vector-effect="non-scaling-stroke" d="
  M 21.88 45.00
  Q 21.93 44.54 21.85 44.37
  A 0.38 0.38 0.0 0 0 21.14 44.46
  Q 21.04 44.86 21.24 45.13
  A 0.36 0.34 31.4 0 0 21.88 45.00"
/>
<path stroke="#531f28" vector-effect="non-scaling-stroke" d="
  M 166.09 64.67
  Q 165.24 68.66 161.81 72.53"
/>
<path stroke="#20102d" vector-effect="non-scaling-stroke" d="
  M 161.81 72.53
  Q 161.56 72.59 161.37 72.61
  A 0.84 0.84 0.0 0 1 160.53 71.40
  L 162.27 67.94
  A 0.52 0.52 0.0 0 0 161.93 67.20
  L 160.39 66.79"
/>
<path stroke="#37132c" vector-effect="non-scaling-stroke" d="
  M 160.39 66.79
  Q 160.53 66.25 160.18 66.05
  A 0.42 0.42 0.0 0 0 159.68 66.13
  Q 157.60 68.32 155.09 69.11
  A 0.49 0.49 0.0 0 1 154.70 68.22
  L 158.43 66.07
  A 0.41 0.41 0.0 0 0 158.08 65.33
  Q 149.36 68.56 139.92 67.57
  Q 134.95 67.05 131.11 61.73"
/>
<path stroke="#20102d" vector-effect="non-scaling-stroke" d="
  M 131.11 61.73
  Q 130.41 59.78 129.14 58.25
  A 0.31 0.31 0.0 0 1 129.55 57.80
  L 136.23 62.50
  A 0.05 0.05 0.0 0 0 136.29 62.43
  Q 131.49 56.91 125.25 53.46"
/>
<path stroke="#37132c" vector-effect="non-scaling-stroke" d="
  M 125.25 53.46
  L 119.17 50.56"
/>
<path stroke="#20102d" vector-effect="non-scaling-stroke" d="
  M 119.17 50.56
  Q 108.41 45.79 96.27 47.65
  A 2.57 2.52 25.3 0 0 95.32 47.98
  L 94.07 48.70
  A 1.37 1.34 24.9 0 1 93.62 48.86
  Q 86.24 50.23 81.80 52.01
  Q 77.02 53.93 72.20 58.06
  A 0.07 0.07 0.0 0 0 72.19 58.15
  L 72.32 58.38
  A 0.15 0.14 -29.2 0 0 72.52 58.43
  L 78.80 54.80
  A 0.24 0.24 0.0 0 1 79.13 54.89
  L 79.26 55.13
  A 0.51 0.50 56.3 0 1 79.13 55.79
  Q 75.59 58.49 73.72 61.76
  A 5.36 5.24 -8.2 0 1 72.87 62.87
  C 69.23 66.55 65.50 70.55 65.46 75.77
  A 1.41 1.38 -24.5 0 1 65.10 76.70
  L 58.35 84.31"
/>
<path stroke="#120c21" vector-effect="non-scaling-stroke" d="
  M 58.35 84.31
  L 52.49 88.19
  A 0.38 0.37 22.2 0 0 52.78 88.87
  L 57.04 87.98"
/>
<path stroke="#20102d" vector-effect="non-scaling-stroke" d="
  M 57.04 87.98
  L 49.15 93.44
  A 0.49 0.48 -32.7 0 0 49.00 94.08
  L 49.16 94.36
  A 0.28 0.28 0.0 0 0 49.54 94.46
  L 53.74 92.04
  A 0.39 0.39 0.0 0 1 54.20 92.66
  Q 50.95 95.70 48.91 99.79"
/>
<path stroke="#404a59" vector-effect="non-scaling-stroke" d="
  M 48.91 99.79
  L 47.39 99.07"
/>
<path stroke="#224873" vector-effect="non-scaling-stroke" d="
  M 47.39 99.07
  Q 45.71 98.40 43.70 97.59
  C 36.96 94.84 29.53 88.83 27.52 81.65
  C 24.10 69.45 32.19 59.95 41.69 53.41
  A 1.41 1.39 -4.2 0 0 42.14 52.90
  L 42.61 51.96
  A 0.37 0.37 0.0 0 0 42.11 51.46
  C 30.95 56.97 19.91 67.99 22.26 81.30
  C 24.29 92.85 35.10 100.90 45.60 104.68"
/>
<path stroke="#404a59" vector-effect="non-scaling-stroke" d="
  M 45.60 104.68
  L 50.20 106.29"
/>
<path stroke="#583952" vector-effect="non-scaling-stroke" d="
  M 50.20 106.29
  L 58.74 108.17"
/>
<path stroke="#69323b" vector-effect="non-scaling-stroke" d="
  M 58.74 108.17
  L 67.81 108.67"
/>
<path stroke="#762e1e" vector-effect="non-scaling-stroke" d="
  M 67.81 108.67
  Q 69.35 109.49 70.92 109.20"
/>
<path stroke="#42192a" vector-effect="non-scaling-stroke" d="
  M 70.92 109.20
  Q 71.08 110.73 73.36 111.40
  A 0.24 0.24 0.0 0 1 73.28 111.87
  Q 70.27 111.75 67.97 110.65
  A 2.24 2.23 -32.9 0 0 66.98 110.44
  L 62.52 110.50"
/>
<path stroke="#20102d" vector-effect="non-scaling-stroke" d="
  M 62.52 110.50
  Q 57.73 110.18 52.88 109.87
  Q 50.92 109.75 44.73 107.89
  A 0.26 0.24 18.8 0 0 44.42 108.03
  L 44.42 108.04
  A 0.24 0.23 -67.3 0 0 44.54 108.35
  Q 54.14 112.61 64.65 113.40"
/>
<path stroke="#42192a" vector-effect="non-scaling-stroke" d="
  M 64.65 113.40
  L 73.30 113.62
  A 2.22 2.07 53.3 0 1 73.91 113.73
  Q 75.36 114.19 76.05 114.18
  Q 86.98 114.07 89.63 113.52
  Q 93.11 112.80 95.42 113.01
  C 97.42 113.19 98.81 112.80 100.67 112.54"
/>
<path stroke="#20102d" vector-effect="non-scaling-stroke" d="
  M 100.67 112.54
  L 101.90 113.16
  A 0.23 0.23 0.0 0 1 101.88 113.58
  L 95.59 115.80"
/>
<path stroke="#120c21" vector-effect="non-scaling-stroke" d="
  M 95.59 115.80
  L 86.37 116.52
  A 0.34 0.34 0.0 0 0 86.35 117.19
  L 90.73 117.90"
/>
<path stroke="#040a1f" vector-effect="non-scaling-stroke" d="
  M 90.73 117.90
  L 88.72 120.08
  A 0.31 0.31 0.0 0 0 88.86 120.59
  C 101.97 124.27 114.42 122.44 126.51 116.89
  A 0.51 0.51 0.0 0 0 126.38 115.93
  Q 123.84 115.52 121.49 113.97"
/>
<path stroke="#120c21" vector-effect="non-scaling-stroke" d="
  M 121.49 113.97
  Q 127.76 111.41 133.38 107.49
  A 0.17 0.16 58.2 0 0 133.42 107.28
  L 133.30 107.06
  A 0.32 0.32 0.0 0 0 132.87 106.94
  Q 127.85 109.61 122.30 109.86"
/>
<path stroke="#20102d" vector-effect="non-scaling-stroke" d="
  M 122.30 109.86
  L 128.48 106.60"
/>
<path stroke="#120c21" vector-effect="non-scaling-stroke" d="
  M 128.48 106.60
  L 140.62 100.08
  A 0.38 0.38 0.0 0 0 140.54 99.38
  C 138.68 98.86 137.31 98.50 135.23 99.05
  Q 133.08 99.61 130.95 99.31"
/>
<path stroke="#37132c" vector-effect="non-scaling-stroke" d="
  M 130.95 99.31
  L 144.41 93.72"
/>
<path stroke="#051843" vector-effect="non-scaling-stroke" d="
  M 144.41 93.72
  Q 157.21 88.11 166.38 77.90
  C 171.69 71.99 175.50 63.19 171.79 55.85
  C 168.54 49.43 158.52 45.58 151.50 44.56
  Q 150.89 44.47 147.43 44.64
  A 0.04 0.04 0.0 0 0 147.42 44.72
  Q 147.58 44.76 147.56 44.91
  A 0.04 0.04 0.0 0 0 147.61 44.95
  Q 150.94 44.32 156.75 47.26
  Q 167.25 52.57 166.09 64.67"
/>
<path stroke="#39225b" vector-effect="non-scaling-stroke" d="
  M 144.41 93.72
  L 157.32 85.04"
/>
<path stroke="#221f5c" vector-effect="non-scaling-stroke" d="
  M 157.32 85.04
  L 161.52 81.77
  A 0.65 0.65 0.0 0 0 161.71 80.97
  L 160.41 78.13"
/>
<path stroke="#552e57" vector-effect="non-scaling-stroke" d="
  M 160.41 78.13
  C 164.77 72.69 166.82 70.00 167.83 63.20
  A 0.38 0.37 -81.2 0 0 167.53 62.78
  L 167.51 62.78
  A 0.35 0.35 0.0 0 0 167.10 63.06
  Q 166.94 64.07 166.09 64.67"
/>
<path stroke="#461638" vector-effect="non-scaling-stroke" d="
  M 130.95 99.31
  L 128.92 99.79"
/>
<path stroke="#98263d" vector-effect="non-scaling-stroke" d="
  M 128.92 99.79
  L 141.17 91.06"
/>
<path stroke="#702640" vector-effect="non-scaling-stroke" d="
  M 160.41 78.13
  L 155.99 81.55"
/>
<path stroke="#87293f" vector-effect="non-scaling-stroke" d="
  M 155.99 81.55
  L 149.91 85.92"
/>
<path stroke="#702640" vector-effect="non-scaling-stroke" d="
  M 151.25 80.65
  Q 152.53 79.59 155.35 77.84
  Q 158.51 75.88 161.81 72.53"
/>
<path stroke="#541a44" vector-effect="non-scaling-stroke" d="
  M 157.32 85.04
  L 155.99 81.55"
/>
<path stroke="#d74130" vector-effect="non-scaling-stroke" d="
  M 119.45 57.28
  C 121.39 59.67 124.35 61.61 126.07 63.16
  Q 130.48 67.14 133.80 72.65
  A 3.08 3.04 -88.1 0 0 134.65 73.57
  L 141.25 78.22
  A 1.07 1.07 0.0 0 1 141.66 79.39
  L 140.72 82.57
  A 0.51 0.51 0.0 0 0 141.42 83.18
  Q 142.88 82.50 144.33 82.52"
/>
<path stroke="#933537" vector-effect="non-scaling-stroke" d="
  M 144.33 82.52
  Q 141.24 85.42 137.53 87.57
  Q 136.29 88.29 135.62 89.18
  A 0.41 0.41 0.0 0 0 136.16 89.77
  L 151.25 80.65"
/>
<path stroke="#c64432" vector-effect="non-scaling-stroke" d="
  M 151.25 80.65
  L 149.91 85.92"
/>
<path stroke="#aa3836" vector-effect="non-scaling-stroke" d="
  M 149.91 85.92
  L 141.17 91.06"
/>
<path stroke="#d74130" vector-effect="non-scaling-stroke" d="
  M 141.17 91.06
  Q 139.28 91.64 135.62 93.63
  Q 130.24 96.55 118.22 100.58
  Q 115.11 101.62 109.14 103.07
  Q 104.53 104.18 100.07 105.64"
/>
<path stroke="#b53e34" vector-effect="non-scaling-stroke" d="
  M 100.07 105.64
  Q 85.75 109.70 70.92 109.20"
/>
<path stroke="#dc5745" vector-effect="non-scaling-stroke" d="
  M 67.81 108.67
  L 68.21 104.97"
/>
<path stroke="#b53e34" vector-effect="non-scaling-stroke" d="
  M 68.21 104.97
  Q 68.89 105.18 69.40 105.12
  A 0.36 0.36 0.0 0 0 69.64 104.54
  Q 69.13 103.88 67.97 103.80"
/>
<path stroke="#d74130" vector-effect="non-scaling-stroke" d="
  M 67.97 103.80
  Q 66.71 102.29 65.28 101.11
  C 62.77 99.07 61.92 97.67 62.18 94.75
  A 1.56 1.55 -20.2 0 1 62.63 93.79
  Q 64.00 92.44 64.27 90.75"
/>
<path stroke="#aa3836" vector-effect="non-scaling-stroke" d="
  M 64.27 90.75
  L 66.25 88.74"
/>
<path stroke="#2f1339" vector-effect="non-scaling-stroke" d="
  M 128.48 106.60
  Q 130.20 103.30 128.57 99.84"
/>
<path stroke="#731f32" vector-effect="non-scaling-stroke" d="
  M 128.92 99.79
  Q 128.73 100.00 128.57 99.84"
/>
<path stroke="#81233e" vector-effect="non-scaling-stroke" d="
  M 128.57 99.84
  Q 122.50 102.62 116.17 105.42
  Q 112.58 107.01 102.48 110.05"
/>
<path stroke="#a32c3c" vector-effect="non-scaling-stroke" d="
  M 102.48 110.05
  Q 99.35 110.75 96.31 111.03
  C 93.04 111.34 90.41 112.56 87.18 111.97
  A 0.39 0.39 0.0 0 1 87.19 111.20
  L 100.08 109.20
  A 0.60 0.59 -20.1 0 0 100.50 108.31
  Q 99.85 107.22 100.07 105.64"
/>
<path stroke="#702640" vector-effect="non-scaling-stroke" d="
  M 146.93 80.29
  Q 149.38 79.50 150.70 77.39"
/>
<path stroke="#d74130" vector-effect="non-scaling-stroke" d="
  M 105.25 54.24
  Q 94.51 56.47 85.41 62.57
  Q 83.29 63.98 81.12 66.06
  Q 78.05 69.00 77.33 70.09
  Q 74.11 75.01 68.00 87.99
  Q 67.57 88.88 66.25 88.74"
/>
<path stroke="#98263d" vector-effect="non-scaling-stroke" d="
  M 66.25 88.74
  Q 66.31 88.33 65.78 88.11
  A 0.52 0.51 40.6 0 0 65.32 88.14
  L 58.50 92.08
  A 0.42 0.42 0.0 0 1 57.87 91.70
  L 57.90 91.21"
/>
<path stroke="#81233e" vector-effect="non-scaling-stroke" d="
  M 57.90 91.21
  L 59.08 90.10"
/>
<path stroke="#98263d" vector-effect="non-scaling-stroke" d="
  M 59.08 90.10
  Q 63.01 86.32 67.30 83.06
  Q 68.53 82.13 69.76 79.42
  Q 69.77 79.40 69.78 79.38
  L 74.03 72.26"
/>
<path stroke="#541a44" vector-effect="non-scaling-stroke" d="
  M 125.25 53.46
  Q 125.09 55.79 125.88 57.77
  A 1.30 1.26 -83.6 0 0 126.33 58.35
  L 131.11 61.73"
/>
<path stroke="#541a44" vector-effect="non-scaling-stroke" d="
  M 160.39 66.79
  Q 156.42 72.58 150.70 77.39"
/>
<path stroke="#87293f" vector-effect="non-scaling-stroke" d="
  M 150.70 77.39
  Q 150.23 71.38 147.50 72.08"
/>
<path stroke="#98263d" vector-effect="non-scaling-stroke" d="
  M 147.50 72.08
  C 141.96 72.38 138.42 71.88 135.19 68.83
  Q 129.20 63.19 122.32 58.68
  Q 120.98 57.80 119.45 57.28"
/>
<path stroke="#aa3836" vector-effect="non-scaling-stroke" d="
  M 119.45 57.28
  Q 118.97 56.79 118.97 57.05"
/>
<path stroke="#87293f" vector-effect="non-scaling-stroke" d="
  M 118.97 57.05
  Q 119.20 55.96 118.98 55.24
  A 1.33 1.31 9.7 0 0 118.49 54.56
  Q 113.38 50.95 106.56 49.49"
/>
<path stroke="#5f2043" vector-effect="non-scaling-stroke" d="
  M 64.65 113.40
  Q 62.50 111.93 62.52 110.50"
/>
<path stroke="#b43139" vector-effect="non-scaling-stroke" d="
  M 147.50 72.08
  Q 146.06 73.26 144.04 73.02
  A 0.30 0.29 11.6 0 0 143.72 73.22
  L 143.64 73.49
  A 0.35 0.35 0.0 0 0 143.91 73.93
  Q 146.55 74.45 147.86 76.35
  A 1.08 1.06 -53.2 0 1 147.99 77.33
  L 146.93 80.29"
/>
<path stroke="#81233e" vector-effect="non-scaling-stroke" d="
  M 146.93 80.29
  L 144.33 82.52"
/>
<path stroke="#a32c3c" vector-effect="non-scaling-stroke" d="
  M 67.97 103.80
  Q 59.87 103.22 58.64 96.45"
/>
<path stroke="#a84251" vector-effect="non-scaling-stroke" d="
  M 68.21 104.97
  L 60.14 103.30"
/>
<path stroke="#974968" vector-effect="non-scaling-stroke" d="
  M 60.14 103.30
  L 57.27 102.47"
/>
<path stroke="#c64432" vector-effect="non-scaling-stroke" d="
  M 118.97 57.05
  Q 112.40 54.35 105.25 54.24"
/>
<path stroke="#b43139" vector-effect="non-scaling-stroke" d="
  M 105.25 54.24
  Q 103.06 53.79 100.75 53.64
  Q 100.05 53.59 99.60 54.00
  Q 98.94 54.60 98.64 54.70
  C 91.96 56.93 88.48 58.48 83.22 62.13
  A 2.92 2.76 -2.3 0 0 82.46 62.91
  Q 81.37 64.62 79.28 66.52
  Q 78.67 67.08 76.83 69.54
  Q 75.66 71.10 74.03 72.26"
/>
<path stroke="#87293f" vector-effect="non-scaling-stroke" d="
  M 74.03 72.26
  Q 74.31 71.17 73.08 69.84"
/>
<path stroke="#87293f" vector-effect="non-scaling-stroke" d="
  M 79.12 60.13
  L 89.53 54.22
  A 0.99 0.97 78.3 0 0 90.02 53.46
  L 90.23 51.42"
/>
<path stroke="#98263d" vector-effect="non-scaling-stroke" d="
  M 64.27 90.75
  L 58.64 96.45"
/>
<path stroke="#762342" vector-effect="non-scaling-stroke" d="
  M 58.64 96.45
  Q 56.85 98.98 57.27 102.47"
/>
<path stroke="#8c436a" vector-effect="non-scaling-stroke" d="
  M 57.27 102.47
  L 52.46 100.98"
/>
<path stroke="#745471" vector-effect="non-scaling-stroke" d="
  M 52.46 100.98
  Q 52.14 101.16 51.98 100.86"
/>
<path stroke="#2f1339" vector-effect="non-scaling-stroke" d="
  M 122.30 109.86
  L 112.71 113.30
  A 0.21 0.21 0.0 0 0 112.79 113.71
  Q 116.22 113.46 118.17 115.06"
/>
<path stroke="#211137" vector-effect="non-scaling-stroke" d="
  M 118.17 115.06
  Q 114.81 116.63 112.76 116.35"
/>
<path stroke="#2f1339" vector-effect="non-scaling-stroke" d="
  M 112.76 116.35
  Q 103.81 117.09 95.59 115.80"
/>
<path stroke="#5f2043" vector-effect="non-scaling-stroke" d="
  M 100.67 112.54
  Q 102.05 111.83 102.48 110.05"
/>
<path stroke="#541a44" vector-effect="non-scaling-stroke" d="
  M 57.90 91.21
  Q 53.53 94.69 52.57 100.25
  Q 52.52 100.53 52.38 100.65
  Q 52.21 100.80 51.98 100.86"
/>
<path stroke="#5d5172" vector-effect="non-scaling-stroke" d="
  M 51.98 100.86
  L 48.91 99.79"
/>
<path stroke="#541a44" vector-effect="non-scaling-stroke" d="
  M 59.08 90.10
  L 59.48 86.40"
/>
<path stroke="#461638" vector-effect="non-scaling-stroke" d="
  M 59.48 86.40
  L 66.20 80.67"
/>
<path stroke="#541a44" vector-effect="non-scaling-stroke" d="
  M 119.17 50.56
  L 106.56 49.49"
/>
<path stroke="#702640" vector-effect="non-scaling-stroke" d="
  M 106.56 49.49
  Q 98.69 49.17 90.23 51.42"
/>
<path stroke="#541a44" vector-effect="non-scaling-stroke" d="
  M 90.23 51.42
  Q 87.68 51.63 85.28 53.15
  A 0.46 0.45 45.9 0 0 85.27 53.91
  Q 85.78 54.27 85.56 54.81
  A 0.73 0.72 -1.2 0 1 85.17 55.21
  Q 81.39 56.92 79.12 60.13"
/>
<path stroke="#702640" vector-effect="non-scaling-stroke" d="
  M 79.12 60.13
  L 73.69 65.19
  A 0.46 0.46 0.0 0 0 74.00 65.99
  L 75.39 65.99
  A 0.48 0.48 0.0 0 1 75.57 66.91
  Q 73.41 67.76 73.08 69.84"
/>
<path stroke="#541a44" vector-effect="non-scaling-stroke" d="
  M 73.08 69.84
  Q 68.54 74.47 66.20 80.67"
/>
<path stroke="#2f1339" vector-effect="non-scaling-stroke" d="
  M 66.20 80.67
  Q 63.01 80.50 59.62 84.65
  Q 59.14 85.23 58.35 84.31"
/>
<path stroke="#be6279" vector-effect="non-scaling-stroke" d="
  M 60.14 103.30
  Q 57.17 106.45 58.74 108.17"
/>
<path stroke="#957a97" vector-effect="non-scaling-stroke" d="
  M 52.46 100.98
  Q 50.09 103.82 50.20 106.29"
/>
<path stroke="#130d2b" vector-effect="non-scaling-stroke" d="
  M 121.49 113.97
  L 118.17 115.06"
/>
<path stroke="#130d2b" vector-effect="non-scaling-stroke" d="
  M 90.73 117.90
  Q 95.16 118.30 99.61 119.07
  Q 105.41 120.06 112.76 116.35"
/>
<path stroke="#2f1339" vector-effect="non-scaling-stroke" d="
  M 59.48 86.40
  L 57.04 87.98"
/>
<path stroke="#5f89b8" vector-effect="non-scaling-stroke" d="
  M 47.39 99.07
  L 45.60 104.68"
/>
<path stroke="#404a59" vector-effect="non-scaling-stroke" d="
  M 138.11 46.51
  A 0.32 0.30 -27.0 0 0 138.70 46.68
  Q 138.89 46.38 138.77 46.12
  A 0.30 0.29 46.1 0 0 138.25 46.10
  Q 138.13 46.33 138.11 46.51"
/>
<path stroke="#404a59" vector-effect="non-scaling-stroke" d="
  M 178.61 46.93
  A 0.31 0.26 -71.7 0 0 178.18 47.20
  Q 178.16 47.62 178.37 47.76
  A 0.34 0.32 -79.1 0 0 178.86 47.41
  Q 178.81 47.10 178.61 46.93"
/>
<path stroke="#404a59" vector-effect="non-scaling-stroke" d="
  M 155.55 53.22
  A 0.46 0.46 0.0 0 0 155.83 52.36
  Q 155.04 51.89 154.58 52.15
  A 0.40 0.40 0.0 0 0 154.63 52.88
  Q 155.52 53.22 155.55 53.22"
/>
<path stroke="#404a59" vector-effect="non-scaling-stroke" d="
  M 70.29 53.72
  Q 70.78 53.99 71.15 53.91
  A 0.41 0.32 43.6 0 0 71.05 53.22
  Q 70.57 53.03 70.30 53.30
  Q 70.04 53.58 70.29 53.72"
/>
<path stroke="#404a59" vector-effect="non-scaling-stroke" d="
  M 143.28 55.69
  Q 143.57 55.81 143.72 55.67
  A 0.33 0.32 10.0 0 0 143.34 55.15
  Q 143.27 55.18 143.17 55.45
  A 0.19 0.19 0.0 0 0 143.28 55.69"
/>
<path stroke="#37132c" vector-effect="non-scaling-stroke" d="
  M 64.05 60.60
  A 0.63 0.55 40.0 0 0 65.10 60.58
  Q 65.18 60.34 64.87 59.91
  Q 64.57 59.50 64.17 59.89
  Q 63.80 60.25 64.05 60.60"
/>
<path stroke="#404a59" vector-effect="non-scaling-stroke" d="
  M 145.96 63.21
  Q 145.72 63.62 146.09 64.26
  A 0.43 0.43 0.0 0 0 146.79 64.33
  Q 147.25 63.80 147.27 63.74
  A 0.72 0.70 -22.2 0 0 145.96 63.21"
/>
<path stroke="#404a59" vector-effect="non-scaling-stroke" d="
  M 43.10 64.45
  Q 43.27 63.93 43.05 63.70
  A 0.56 0.52 -64.0 0 0 42.15 64.05
  Q 42.08 64.50 42.49 64.67
  Q 42.97 64.86 43.10 64.45"
/>
<path stroke="#20102d" vector-effect="non-scaling-stroke" d="
  M 19.37 65.20
  Q 19.06 64.98 18.81 65.23
  A 0.29 0.29 0.0 0 0 18.98 65.72
  Q 19.00 65.72 19.22 65.71
  A 0.28 0.28 0.0 0 0 19.37 65.20"
/>
<path stroke="#404a59" vector-effect="non-scaling-stroke" d="
  M 51.21 70.83
  A 0.37 0.36 35.6 0 0 51.79 70.74
  Q 51.94 70.42 51.73 70.30
  A 0.42 0.35 19.2 0 0 51.14 70.52
  Q 51.11 70.74 51.21 70.83"
/>
<path stroke="#404a59" vector-effect="non-scaling-stroke" d="
  M 182.20 70.30
  Q 181.96 70.43 181.84 71.16
  Q 181.76 71.64 182.13 71.76
  Q 182.44 71.85 182.71 71.47
  A 0.75 0.53 -78.3 0 0 182.20 70.30"
/>
<path stroke="#818487" vector-effect="non-scaling-stroke" d="
  M 40.22 78.84
  A 0.84 0.84 0.0 0 0 39.38 78.00
  A 0.84 0.84 0.0 0 0 38.54 78.84
  A 0.84 0.84 0.0 0 0 39.38 79.68
  A 0.84 0.84 0.0 0 0 40.22 78.84"
/>
<path stroke="#20102d" vector-effect="non-scaling-stroke" d="
  M 49.83 84.24
  Q 49.69 84.15 49.50 84.12
  A 0.33 0.31 77.9 0 0 49.20 84.62
  Q 49.36 84.88 49.73 84.76
  A 0.31 0.28 -37.1 0 0 49.83 84.24"
/>
<path stroke="#20102d" vector-effect="non-scaling-stroke" d="
  M 165.7923 88.9749
  A 0.58 0.42 -40.3 0 0 165.0783 89.0297
  A 0.58 0.42 -40.3 0 0 164.9077 89.7251
  A 0.58 0.42 -40.3 0 0 165.6217 89.6703
  A 0.58 0.42 -40.3 0 0 165.7923 88.9749"
/>
<path stroke="#20102d" vector-effect="non-scaling-stroke" d="
  M 19.75 99.44
  A 0.28 0.28 0.0 0 0 19.47 99.16
  A 0.28 0.28 0.0 0 0 19.19 99.44
  A 0.28 0.28 0.0 0 0 19.47 99.72
  A 0.28 0.28 0.0 0 0 19.75 99.44"
/>
<path stroke="#404a59" vector-effect="non-scaling-stroke" d="
  M 154.94 101.19
  A 0.72 0.72 0.0 0 0 154.22 100.47
  A 0.72 0.72 0.0 0 0 153.50 101.19
  A 0.72 0.72 0.0 0 0 154.22 101.91
  A 0.72 0.72 0.0 0 0 154.94 101.19"
/>
<path stroke="#404a59" vector-effect="non-scaling-stroke" d="
  M 177.39 102.74
  Q 177.80 102.93 178.24 102.82
  A 0.37 0.33 -35.0 0 0 178.39 102.18
  Q 178.05 102.00 177.47 102.20
  A 0.31 0.28 -39.5 0 0 177.39 102.74"
/>
<path stroke="#20102d" vector-effect="non-scaling-stroke" d="
  M 26.77 106.72
  Q 27.38 106.75 27.69 106.24
  A 0.25 0.25 0.0 0 0 27.46 105.86
  Q 26.86 105.88 26.56 106.18
  A 0.31 0.31 0.0 0 0 26.77 106.72"
/>
<path stroke="#818487" vector-effect="non-scaling-stroke" d="
  M 164.03 113.14
  Q 164.14 113.14 164.69 111.78
  A 0.62 0.59 -12.3 0 1 164.85 111.54
  L 165.42 110.97
  A 0.59 0.59 0.0 0 0 165.28 110.04
  Q 164.41 109.58 164.26 108.63
  A 0.16 0.07 12.6 0 0 164.14 108.55
  Q 164.12 108.54 164.09 108.54
  Q 164.07 108.54 164.04 108.55
  A 0.16 0.07 -11.2 0 0 163.92 108.63
  Q 163.75 109.57 162.87 110.01
  A 0.59 0.59 0.0 0 0 162.70 110.94
  L 163.26 111.52
  A 0.62 0.59 13.7 0 1 163.41 111.76
  Q 163.93 113.14 164.03 113.14"
/>
<path stroke="#404a59" vector-effect="non-scaling-stroke" d="
  M 34.10 112.70
  Q 33.92 113.14 34.07 113.49
  A 0.69 0.67 -43.9 0 0 35.31 113.49
  Q 35.52 113.07 35.44 112.77
  A 0.72 0.70 -41.4 0 0 34.10 112.70"
/>
<path stroke="#404a59" vector-effect="non-scaling-stroke" d="
  M 142.89 113.53
  Q 142.96 113.27 142.57 113.17
  A 0.21 0.20 23.1 0 0 142.34 113.26
  Q 142.22 113.45 142.26 113.59
  A 0.35 0.31 -47.6 0 0 142.89 113.53"
/>
<path stroke="#404a59" vector-effect="non-scaling-stroke" d="
  M 58.7845 121.1063
  A 0.48 0.35 -42.4 0 0 58.1940 121.1715
  A 0.48 0.35 -42.4 0 0 58.0755 121.7537
  A 0.48 0.35 -42.4 0 0 58.6660 121.6885
  A 0.48 0.35 -42.4 0 0 58.7845 121.1063"
/>
<path stroke="#404a59" vector-effect="non-scaling-stroke" d="
  M 23.17 122.11
  Q 22.68 122.23 22.52 122.52
  A 0.64 0.50 24.8 0 0 22.91 123.28
  Q 23.68 123.60 23.86 123.00
  A 0.69 0.61 -86.2 0 0 23.17 122.11"
/>
<path stroke="#404a59" vector-effect="non-scaling-stroke" d="
  M 44.99 123.44
  A 0.41 0.38 39.4 0 0 44.21 123.49
  Q 44.20 123.83 44.75 123.72
  Q 45.05 123.66 44.99 123.44"
/>
<path stroke="#404a59" vector-effect="non-scaling-stroke" d="
  M 134.76 124.48
  Q 134.86 124.30 134.85 124.00
  A 0.46 0.26 75.4 0 0 134.37 123.51
  Q 134.02 123.92 134.11 124.38
  A 0.35 0.35 0.0 0 0 134.76 124.48"
/>
<path stroke="#404a59" vector-effect="non-scaling-stroke" d="
  M 154.32 124.20
  A 0.62 0.62 0.0 0 0 153.70 123.58
  A 0.62 0.62 0.0 0 0 153.08 124.20
  A 0.62 0.62 0.0 0 0 153.70 124.82
  A 0.62 0.62 0.0 0 0 154.32 124.20"
/>
<path stroke="#404a59" vector-effect="non-scaling-stroke" d="
  M 168.49 129.61
  Q 168.26 129.58 168.05 129.79
  A 0.59 0.50 -72.2 0 0 168.46 130.77
  Q 168.74 130.69 168.84 130.16
  Q 168.93 129.68 168.49 129.61"
/>
<path stroke="#404a59" vector-effect="non-scaling-stroke" d="
  M 114.5092 129.7101
  A 0.56 0.40 -91.1 0 0 114.1201 130.2777
  A 0.56 0.40 -91.1 0 0 114.5308 130.8299
  A 0.56 0.40 -91.1 0 0 114.9199 130.2623
  A 0.56 0.40 -91.1 0 0 114.5092 129.7101"
/>
<path stroke="#20102d" vector-effect="non-scaling-stroke" d="
  M 53.89 130.51
  Q 53.91 130.35 53.58 130.17
  A 0.18 0.17 -64.2 0 0 53.34 130.26
  Q 53.22 130.51 53.24 130.58
  A 0.35 0.32 -48.5 0 0 53.89 130.51"
/>
<path stroke="#404a59" vector-effect="non-scaling-stroke" d="
  M 94.60 131.16
  A 0.31 0.29 -87.8 0 0 94.20 131.55
  Q 94.27 131.73 94.47 131.80
  A 0.30 0.29 -0.5 0 0 94.85 131.43
  Q 94.78 131.24 94.60 131.16"
/>
<path stroke="#20102d" vector-effect="non-scaling-stroke" d="
  M 73.75 131.35
  A 0.41 0.29 -58.2 0 0 73.15 131.60
  Q 73.11 131.76 73.16 132.05
  A 0.35 0.35 0.0 0 0 73.80 132.17
  Q 74.01 131.84 73.75 131.35"
/>
<path stroke="#818487" vector-effect="non-scaling-stroke" d="
  M 71.61 146.54
  C 68.50 140.37 59.84 139.84 55.75 145.21
  C 51.07 151.33 54.37 162.23 63.13 162.17
  C 69.29 162.13 72.36 157.48 72.43 151.66
  A 0.66 0.66 0.0 0 0 71.77 150.99
  L 63.96 150.99
  A 0.38 0.38 0.0 0 0 63.58 151.37
  L 63.58 154.08
  A 0.39 0.39 0.0 0 0 63.97 154.47
  L 67.45 154.47
  A 0.40 0.40 0.0 0 1 67.83 154.99
  Q 66.49 158.98 62.28 158.42
  C 58.67 157.93 57.54 153.99 57.87 150.82
  C 58.44 145.28 63.95 143.13 67.56 147.92
  A 0.81 0.80 62.0 0 0 68.45 148.20
  L 71.33 147.23
  A 0.50 0.49 67.5 0 0 71.61 146.54"
/>
<path stroke="#818487" vector-effect="non-scaling-stroke" d="
  M 85.3374 141.4608
  A 10.43 9.67 -89.3 0 0 75.5407 151.7719
  A 10.43 9.67 -89.3 0 0 85.0826 162.3192
  A 10.43 9.67 -89.3 0 0 94.8793 152.0081
  A 10.43 9.67 -89.3 0 0 85.3374 141.4608"
/>
<path stroke="#818487" vector-effect="non-scaling-stroke" d="
  M 19.78 151.85
  Q 19.81 161.02 19.83 161.17
  A 0.73 0.73 0.0 0 0 20.55 161.81
  L 31.50 161.86
  A 0.48 0.48 0.0 0 0 31.98 161.38
  L 31.98 158.65
  A 0.48 0.47 90.0 0 0 31.51 158.17
  L 23.97 158.17
  A 0.39 0.38 0.0 0 1 23.58 157.79
  L 23.58 153.93
  A 0.40 0.40 0.0 0 1 23.98 153.53
  L 29.91 153.53
  A 0.73 0.72 5.6 0 0 30.63 152.95
  Q 30.74 152.41 30.74 151.82
  Q 30.74 151.25 30.62 150.70
  A 0.73 0.72 -5.9 0 0 29.90 150.13
  L 23.97 150.16
  A 0.40 0.40 0.0 0 1 23.57 149.76
  L 23.55 145.90
  A 0.39 0.38 -0.3 0 1 23.94 145.52
  L 31.48 145.48
  A 0.48 0.47 89.7 0 0 31.95 145.00
  L 31.93 142.27
  A 0.48 0.48 0.0 0 0 31.45 141.79
  L 20.50 141.89
  A 0.73 0.73 0.0 0 0 19.78 142.53
  Q 19.76 142.69 19.78 151.85"
/>
<path stroke="#818487" vector-effect="non-scaling-stroke" d="
  M 51.06 161.67
  L 47.01 154.68
  A 0.47 0.46 -31.6 0 1 47.16 154.06
  Q 51.50 151.22 50.10 146.25
  C 48.52 140.68 42.13 141.82 37.15 141.86
  A 0.63 0.63 0.0 0 0 36.51 142.50
  L 36.53 161.30
  A 0.54 0.54 0.0 0 0 37.07 161.84
  L 39.78 161.84
  A 0.52 0.52 0.0 0 0 40.30 161.31
  L 40.30 156.11
  A 1.52 1.51 30.0 0 1 43.12 155.36
  L 46.76 161.65
  A 0.38 0.36 74.2 0 0 47.08 161.84
  L 50.96 161.84
  A 0.12 0.11 75.8 0 0 51.06 161.67"
/>
<path stroke="#818487" vector-effect="non-scaling-stroke" d="
  M 110.82 143.80
  C 107.10 140.65 98.73 140.46 97.97 146.71
  C 97.24 152.64 103.00 153.01 106.56 154.44
  Q 107.99 155.01 108.09 155.91
  A 2.56 2.22 -8.0 0 1 105.93 158.39
  Q 102.59 158.94 99.80 156.28
  A 0.74 0.74 0.0 0 0 98.68 156.38
  L 97.50 158.06
  A 0.93 0.93 0.0 0 0 97.57 159.21
  C 100.67 162.74 107.62 163.49 110.74 159.70
  C 112.46 157.62 112.62 154.47 110.84 152.39
  C 109.09 150.34 102.52 149.54 101.90 147.75
  A 2.13 1.82 -12.5 0 1 103.74 145.31
  Q 106.46 144.94 108.58 146.79
  A 0.74 0.73 -51.8 0 0 109.66 146.66
  L 110.95 144.82
  A 0.76 0.76 0.0 0 0 110.82 143.80"
/>
<path stroke="#818487" vector-effect="non-scaling-stroke" d="
  M 125.91 150.64
  A 0.37 0.37 0.0 0 0 125.54 150.27
  L 120.19 150.27
  A 0.37 0.37 0.0 0 1 119.82 149.90
  L 119.82 145.72
  A 0.37 0.37 0.0 0 1 120.19 145.35
  L 126.98 145.35
  A 0.37 0.37 0.0 0 0 127.35 144.98
  L 127.35 142.19
  A 0.37 0.37 0.0 0 0 126.98 141.82
  L 116.43 141.82
  A 0.37 0.37 0.0 0 0 116.06 142.19
  L 116.06 161.45
  A 0.37 0.37 0.0 0 0 116.43 161.82
  L 119.44 161.82
  A 0.37 0.37 0.0 0 0 119.81 161.45
  L 119.81 154.29
  A 0.37 0.37 0.0 0 1 120.18 153.92
  L 125.54 153.92
  A 0.37 0.37 0.0 0 0 125.91 153.55
  L 125.91 150.64"
/>
<path stroke="#818487" vector-effect="non-scaling-stroke" d="
  M 137.12 157.74
  Q 137.91 157.74 140.21 157.69
  A 0.97 0.97 0.0 0 1 141.15 158.35
  L 142.17 161.38
  A 0.70 0.69 -9.3 0 0 142.83 161.85
  L 145.83 161.85
  A 0.49 0.48 -9.4 0 0 146.29 161.21
  L 140.03 142.69
  A 1.08 1.08 0.0 0 0 139.16 141.96
  Q 138.18 141.82 137.13 141.82
  Q 136.08 141.82 135.09 141.96
  A 1.08 1.08 0.0 0 0 134.22 142.69
  L 127.94 161.20
  A 0.49 0.48 9.5 0 0 128.40 161.84
  L 131.40 161.84
  A 0.70 0.69 9.4 0 0 132.06 161.38
  L 133.09 158.35
  A 0.97 0.97 0.0 0 1 134.02 157.69
  Q 136.33 157.74 137.12 157.74"
/>
<path stroke="#818487" vector-effect="non-scaling-stroke" d="
  M 168.28 151.88
  Q 168.31 161.03 168.33 161.18
  A 0.73 0.73 0.0 0 0 169.05 161.82
  L 179.98 161.86
  A 0.48 0.48 0.0 0 0 180.46 161.38
  L 180.46 158.66
  A 0.48 0.47 90.0 0 0 179.99 158.18
  L 172.46 158.18
  A 0.39 0.38 -0.0 0 1 172.07 157.80
  L 172.07 153.95
  A 0.40 0.40 0.0 0 1 172.47 153.55
  L 178.39 153.55
  A 0.73 0.72 5.6 0 0 179.11 152.97
  Q 179.22 152.42 179.22 151.84
  Q 179.22 151.27 179.10 150.73
  A 0.73 0.72 -5.9 0 0 178.38 150.15
  L 172.46 150.18
  A 0.40 0.40 0.0 0 1 172.06 149.78
  L 172.04 145.93
  A 0.39 0.38 -0.3 0 1 172.43 145.55
  L 179.96 145.51
  A 0.48 0.47 89.7 0 0 180.42 145.03
  L 180.41 142.30
  A 0.48 0.48 0.0 0 0 179.93 141.83
  L 169.00 141.93
  A 0.73 0.73 0.0 0 0 168.28 142.57
  Q 168.26 142.72 168.28 151.88"
/>
<path stroke="#818487" vector-effect="non-scaling-stroke" d="
  M 164.32 161.66
  L 160.30 154.71
  A 0.46 0.46 0.0 0 1 160.45 154.09
  Q 164.76 151.27 163.37 146.33
  C 161.81 140.79 155.45 141.92 150.50 141.96
  A 0.63 0.63 0.0 0 0 149.87 142.59
  L 149.87 161.28
  A 0.54 0.54 0.0 0 0 150.41 161.82
  L 153.10 161.82
  A 0.52 0.52 0.0 0 0 153.62 161.30
  L 153.62 156.13
  A 1.51 1.50 30.0 0 1 156.43 155.38
  L 160.04 161.64
  A 0.38 0.36 74.2 0 0 160.36 161.83
  L 164.22 161.83
  A 0.12 0.11 75.9 0 0 164.32 161.66"
/>
<path stroke="#f4811b" vector-effect="non-scaling-stroke" d="
  M 93.77 59.77
  Q 81.67 64.82 77.01 76.52
  Q 76.16 78.64 74.26 87.18"
/>
<path stroke="#f46d1d" vector-effect="non-scaling-stroke" d="
  M 74.26 87.18
  Q 71.52 92.95 74.20 97.28
  C 77.15 102.04 84.16 102.80 89.63 103.11
  A 1.52 1.49 -24.8 0 1 90.39 103.38
  L 91.76 104.34
  A 1.41 1.40 -27.5 0 0 92.56 104.59
  Q 108.04 104.38 120.69 95.84"
/>
<path stroke="#f4811b" vector-effect="non-scaling-stroke" d="
  M 120.69 95.84
  L 128.60 91.32"
/>
<path stroke="#f46d1d" vector-effect="non-scaling-stroke" d="
  M 128.60 91.32
  Q 132.72 88.72 136.40 82.55
  A 3.01 3.01 0.0 0 0 136.68 80.06
  Q 136.12 78.35 134.71 76.27
  Q 134.44 75.87 127.55 66.94
  Q 120.23 57.45 109.88 57.24"
/>
<path stroke="#f48c32" vector-effect="non-scaling-stroke" d="
  M 109.88 57.24
  Q 100.58 56.38 93.77 59.77"
/>
<path stroke="#ffa627" vector-effect="non-scaling-stroke" d="
  M 109.88 57.24
  Q 117.38 60.38 120.61 62.64
  Q 126.36 66.65 129.38 74.22"
/>
<path stroke="#ffba25" vector-effect="non-scaling-stroke" d="
  M 129.38 74.22
  Q 130.34 77.35 131.06 79.83
  Q 132.02 83.14 128.95 84.28"
/>
<path stroke="#906a34" vector-effect="non-scaling-stroke" d="
  M 128.95 84.28
  Q 128.07 67.19 112.71 62.26"
/>
<path stroke="#816728" vector-effect="non-scaling-stroke" d="
  M 112.71 62.26
  Q 104.85 59.76 97.69 62.43
  Q 79.43 69.24 80.40 88.97
  Q 80.84 97.97 89.63 99.46"
/>
<path stroke="#ffba25" vector-effect="non-scaling-stroke" d="
  M 89.63 99.46
  L 87.46 100.25
  A 1.31 1.31 0.0 0 1 86.52 100.25
  C 83.52 99.08 80.10 98.24 79.43 95.07
  Q 77.68 86.68 79.82 78.66
  Q 80.16 77.37 82.41 73.43
  Q 83.63 71.30 86.01 68.91
  Q 90.11 64.78 93.77 59.77"
/>
<path stroke="#120c21" vector-effect="non-scaling-stroke" d="
  M 112.71 62.26
  L 105.19 64.02
  A 0.30 0.30 0.0 0 0 105.21 64.61
  C 115.60 66.40 122.02 74.65 122.02 85.20
  A 0.80 0.80 0.0 0 0 122.52 85.94
  Q 123.87 86.50 125.50 85.89
  Q 126.19 85.63 126.76 86.60"
/>
<path stroke="#815c11" vector-effect="non-scaling-stroke" d="
  M 89.63 99.46
  Q 110.46 98.87 126.76 86.60"
/>
<path stroke="#905f1e" vector-effect="non-scaling-stroke" d="
  M 126.76 86.60
  L 128.95 84.28"
/>
<path stroke="#ff9b10" vector-effect="non-scaling-stroke" d="
  M 120.69 95.84
  Q 107.61 100.19 103.73 101.02
  Q 90.97 103.75 80.07 98.42
  Q 73.84 95.37 74.26 87.18"
/>
<path stroke="#ff9b10" vector-effect="non-scaling-stroke" d="
  M 128.60 91.32
  L 134.63 81.59
  A 1.12 1.12 0.0 0 0 134.70 80.53
  Q 132.87 76.61 129.38 74.22"
/>
<path stroke="#b53e34" vector-effect="non-scaling-stroke" d="
  M 70.55 88.79
  L 65.69 93.65
  A 2.13 2.12 -45.3 0 0 65.70 96.67
  Q 67.01 97.94 69.16 98.78
  A 0.25 0.25 0.0 0 0 69.46 98.41
  C 67.90 96.12 69.03 93.89 69.70 91.59
  A 2.25 2.20 73.7 0 1 70.12 90.80
  Q 70.70 90.08 70.95 89.01
  A 0.24 0.24 0.0 0 0 70.55 88.79"
/>
<path stroke="#818487" vector-effect="non-scaling-stroke" d="
  M 85.2775 145.0802
  A 6.81 5.75 -89.6 0 0 79.4801 151.8499
  A 6.81 5.75 -89.6 0 0 85.1825 158.6998
  A 6.81 5.75 -89.6 0 0 90.9799 151.9301
  A 6.81 5.75 -89.6 0 0 85.2775 145.0802"
/>
<path stroke="#818487" vector-effect="non-scaling-stroke" d="
  M 40.14 145.78
  L 40.14 150.96
  A 0.40 0.40 0.0 0 0 40.55 151.35
  L 43.33 151.35
  A 3.32 2.85 -0.1 0 0 46.64 148.49
  L 46.64 148.21
  A 3.32 2.85 -0.1 0 0 43.31 145.37
  L 40.53 145.37
  A 0.40 0.40 0.0 0 0 40.14 145.78"
/>
<path stroke="#818487" vector-effect="non-scaling-stroke" d="
  M 134.21 154.07
  A 0.31 0.31 0.0 0 0 134.50 154.48
  L 139.72 154.48
  A 0.31 0.31 0.0 0 0 140.01 154.07
  L 137.40 146.30
  A 0.31 0.31 0.0 0 0 136.82 146.30
  L 134.21 154.07"
/>
<path stroke="#818487" vector-effect="non-scaling-stroke" d="
  M 153.43 145.71
  L 153.37 150.93
  A 0.40 0.40 0.0 0 0 153.76 151.33
  L 156.64 151.37
  A 3.22 2.89 0.7 0 0 159.90 148.52
  L 159.90 148.28
  A 3.22 2.89 0.7 0 0 156.72 145.35
  L 153.84 145.32
  A 0.40 0.40 0.0 0 0 153.43 145.71"
/>
</g>
<path fill="#030914" d="
  M 200.00 0.00
  L 200.00 200.00
  L 0.00 200.00
  L 0.00 0.00
  L 200.00 0.00
  Z
  M 91.78 16.17
  Q 91.93 15.77 91.69 15.35
  A 0.29 0.26 -54.1 0 0 91.20 15.46
  Q 91.07 15.89 91.30 16.19
  A 0.29 0.25 38.5 0 0 91.78 16.17
  Z
  M 59.66 16.78
  Q 60.36 16.98 60.72 16.57
  A 0.46 0.45 -63.7 0 0 60.48 15.82
  Q 60.15 15.75 59.56 16.19
  A 0.33 0.33 0.0 0 0 59.66 16.78
  Z
  M 158.60 18.47
  A 0.80 0.64 -20.0 0 0 157.59 18.13
  Q 157.06 18.35 157.12 18.71
  A 0.74 0.64 -29.4 0 0 158.32 18.95
  Q 158.65 18.63 158.60 18.47
  Z
  M 20.7003 19.1334
  A 0.72 0.53 -84.4 0 0 20.1025 19.7983
  A 0.72 0.53 -84.4 0 0 20.5597 20.5666
  A 0.72 0.53 -84.4 0 0 21.1575 19.9017
  A 0.72 0.53 -84.4 0 0 20.7003 19.1334
  Z
  M 179.15 21.22
  Q 178.80 21.07 178.47 21.10
  A 0.32 0.32 0.0 0 0 178.36 21.70
  Q 178.76 21.91 179.15 21.68
  A 0.27 0.25 -47.5 0 0 179.15 21.22
  Z
  M 123.28 22.82
  Q 123.52 22.72 123.63 22.57
  A 0.39 0.24 -65.8 0 0 123.55 22.00
  Q 123.14 22.01 122.91 22.39
  A 0.30 0.30 0.0 0 0 123.28 22.82
  Z
  M 106.25 23.25
  A 0.52 0.41 -74.4 0 0 106.98 22.72
  Q 106.92 22.32 106.78 22.27
  C 106.25 22.06 105.99 22.92 106.25 23.25
  Z
  M 70.05 26.13
  Q 69.60 26.03 69.37 26.16
  A 0.39 0.37 -55.5 0 0 69.49 26.87
  Q 69.93 26.92 70.12 26.83
  A 0.37 0.37 0.0 0 0 70.05 26.13
  Z
  M 44.60 28.40
  A 0.68 0.47 8.1 0 0 45.42 29.16
  Q 45.77 29.08 45.78 28.81
  Q 45.80 28.35 45.54 28.27
  Q 44.93 28.08 44.60 28.40
  Z
  M 132.26 30.31
  A 0.27 0.27 0.0 0 0 132.70 30.19
  Q 132.89 29.65 132.71 29.39
  A 0.28 0.27 36.4 0 0 132.23 29.46
  Q 132.01 30.09 132.26 30.31
  Z
  M 114.90 31.41
  L 115.26 30.91
  A 0.72 0.72 0.0 0 0 114.47 29.80
  Q 113.06 30.21 114.13 31.45
  A 0.49 0.49 0.0 0 0 114.90 31.41
  Z
  M 31.8439 31.5562
  A 0.88 0.76 -39.0 0 0 30.6817 31.5194
  A 0.88 0.76 -39.0 0 0 30.4761 32.6638
  A 0.88 0.76 -39.0 0 0 31.6383 32.7006
  A 0.88 0.76 -39.0 0 0 31.8439 31.5562
  Z
  M 95.77 31.46
  A 0.29 0.29 0.0 0 0 95.48 31.17
  A 0.29 0.29 0.0 0 0 95.19 31.46
  A 0.29 0.29 0.0 0 0 95.48 31.75
  A 0.29 0.29 0.0 0 0 95.77 31.46
  Z
  M 144.3263 33.1702
  A 0.85 0.63 -88.9 0 0 143.6801 34.0079
  A 0.85 0.63 -88.9 0 0 144.2937 34.8698
  A 0.85 0.63 -88.9 0 0 144.9399 34.0321
  A 0.85 0.63 -88.9 0 0 144.3263 33.1702
  Z
  M 82.62 34.73
  A 0.33 0.32 16.4 0 0 82.06 35.03
  Q 82.11 35.19 82.16 35.29
  A 0.33 0.33 0.0 0 0 82.78 35.19
  Q 82.83 34.96 82.62 34.73
  Z
  M 46.72 42.33
  A 7.53 7.34 -56.3 0 0 44.19 48.50
  A 7.49 7.32 -49.8 0 0 46.98 53.78
  A 7.43 7.18 -43.7 0 0 49.84 55.11
  A 7.50 7.31 -53.1 0 0 57.69 51.79
  A 7.53 7.31 -53.7 0 0 57.69 43.54
  A 7.51 7.32 -54.5 0 0 46.72 42.33
  Z
  M 96.04 43.45
  Q 89.86 42.71 84.52 42.39
  Q 76.95 41.93 61.48 43.77
  A 0.82 0.81 -3.1 0 0 60.75 44.58
  L 60.75 44.68
  A 0.56 0.55 85.6 0 0 61.39 45.23
  Q 78.55 42.76 95.98 43.94
  A 0.12 0.12 0.0 0 0 96.11 43.82
  L 96.11 43.54
  A 0.09 0.08 -86.4 0 0 96.04 43.45
  Z
  M 21.88 45.00
  Q 21.93 44.54 21.85 44.37
  A 0.38 0.38 0.0 0 0 21.14 44.46
  Q 21.04 44.86 21.24 45.13
  A 0.36 0.34 31.4 0 0 21.88 45.00
  Z
  M 166.09 64.67
  Q 165.24 68.66 161.81 72.53
  Q 161.56 72.59 161.37 72.61
  A 0.84 0.84 0.0 0 1 160.53 71.40
  L 162.27 67.94
  A 0.52 0.52 0.0 0 0 161.93 67.20
  L 160.39 66.79
  Q 160.53 66.25 160.18 66.05
  A 0.42 0.42 0.0 0 0 159.68 66.13
  Q 157.60 68.32 155.09 69.11
  A 0.49 0.49 0.0 0 1 154.70 68.22
  L 158.43 66.07
  A 0.41 0.41 0.0 0 0 158.08 65.33
  Q 149.36 68.56 139.92 67.57
  Q 134.95 67.05 131.11 61.73
  Q 130.41 59.78 129.14 58.25
  A 0.31 0.31 0.0 0 1 129.55 57.80
  L 136.23 62.50
  A 0.05 0.05 0.0 0 0 136.29 62.43
  Q 131.49 56.91 125.25 53.46
  L 119.17 50.56
  Q 108.41 45.79 96.27 47.65
  A 2.57 2.52 25.3 0 0 95.32 47.98
  L 94.07 48.70
  A 1.37 1.34 24.9 0 1 93.62 48.86
  Q 86.24 50.23 81.80 52.01
  Q 77.02 53.93 72.20 58.06
  A 0.07 0.07 0.0 0 0 72.19 58.15
  L 72.32 58.38
  A 0.15 0.14 -29.2 0 0 72.52 58.43
  L 78.80 54.80
  A 0.24 0.24 0.0 0 1 79.13 54.89
  L 79.26 55.13
  A 0.51 0.50 56.3 0 1 79.13 55.79
  Q 75.59 58.49 73.72 61.76
  A 5.36 5.24 -8.2 0 1 72.87 62.87
  C 69.23 66.55 65.50 70.55 65.46 75.77
  A 1.41 1.38 -24.5 0 1 65.10 76.70
  L 58.35 84.31
  L 52.49 88.19
  A 0.38 0.37 22.2 0 0 52.78 88.87
  L 57.04 87.98
  L 49.15 93.44
  A 0.49 0.48 -32.7 0 0 49.00 94.08
  L 49.16 94.36
  A 0.28 0.28 0.0 0 0 49.54 94.46
  L 53.74 92.04
  A 0.39 0.39 0.0 0 1 54.20 92.66
  Q 50.95 95.70 48.91 99.79
  L 47.39 99.07
  Q 45.71 98.40 43.70 97.59
  C 36.96 94.84 29.53 88.83 27.52 81.65
  C 24.10 69.45 32.19 59.95 41.69 53.41
  A 1.41 1.39 -4.2 0 0 42.14 52.90
  L 42.61 51.96
  A 0.37 0.37 0.0 0 0 42.11 51.46
  C 30.95 56.97 19.91 67.99 22.26 81.30
  C 24.29 92.85 35.10 100.90 45.60 104.68
  L 50.20 106.29
  L 58.74 108.17
  L 67.81 108.67
  Q 69.35 109.49 70.92 109.20
  Q 71.08 110.73 73.36 111.40
  A 0.24 0.24 0.0 0 1 73.28 111.87
  Q 70.27 111.75 67.97 110.65
  A 2.24 2.23 -32.9 0 0 66.98 110.44
  L 62.52 110.50
  Q 57.73 110.18 52.88 109.87
  Q 50.92 109.75 44.73 107.89
  A 0.26 0.24 18.8 0 0 44.42 108.03
  L 44.42 108.04
  A 0.24 0.23 -67.3 0 0 44.54 108.35
  Q 54.14 112.61 64.65 113.40
  L 73.30 113.62
  A 2.22 2.07 53.3 0 1 73.91 113.73
  Q 75.36 114.19 76.05 114.18
  Q 86.98 114.07 89.63 113.52
  Q 93.11 112.80 95.42 113.01
  C 97.42 113.19 98.81 112.80 100.67 112.54
  L 101.90 113.16
  A 0.23 0.23 0.0 0 1 101.88 113.58
  L 95.59 115.80
  L 86.37 116.52
  A 0.34 0.34 0.0 0 0 86.35 117.19
  L 90.73 117.90
  L 88.72 120.08
  A 0.31 0.31 0.0 0 0 88.86 120.59
  C 101.97 124.27 114.42 122.44 126.51 116.89
  A 0.51 0.51 0.0 0 0 126.38 115.93
  Q 123.84 115.52 121.49 113.97
  Q 127.76 111.41 133.38 107.49
  A 0.17 0.16 58.2 0 0 133.42 107.28
  L 133.30 107.06
  A 0.32 0.32 0.0 0 0 132.87 106.94
  Q 127.85 109.61 122.30 109.86
  L 128.48 106.60
  L 140.62 100.08
  A 0.38 0.38 0.0 0 0 140.54 99.38
  C 138.68 98.86 137.31 98.50 135.23 99.05
  Q 133.08 99.61 130.95 99.31
  L 144.41 93.72
  Q 157.21 88.11 166.38 77.90
  C 171.69 71.99 175.50 63.19 171.79 55.85
  C 168.54 49.43 158.52 45.58 151.50 44.56
  Q 150.89 44.47 147.43 44.64
  A 0.04 0.04 0.0 0 0 147.42 44.72
  Q 147.58 44.76 147.56 44.91
  A 0.04 0.04 0.0 0 0 147.61 44.95
  Q 150.94 44.32 156.75 47.26
  Q 167.25 52.57 166.09 64.67
  Z
  M 138.11 46.51
  A 0.32 0.30 -27.0 0 0 138.70 46.68
  Q 138.89 46.38 138.77 46.12
  A 0.30 0.29 46.1 0 0 138.25 46.10
  Q 138.13 46.33 138.11 46.51
  Z
  M 178.61 46.93
  A 0.31 0.26 -71.7 0 0 178.18 47.20
  Q 178.16 47.62 178.37 47.76
  A 0.34 0.32 -79.1 0 0 178.86 47.41
  Q 178.81 47.10 178.61 46.93
  Z
  M 155.55 53.22
  A 0.46 0.46 0.0 0 0 155.83 52.36
  Q 155.04 51.89 154.58 52.15
  A 0.40 0.40 0.0 0 0 154.63 52.88
  Q 155.52 53.22 155.55 53.22
  Z
  M 70.29 53.72
  Q 70.78 53.99 71.15 53.91
  A 0.41 0.32 43.6 0 0 71.05 53.22
  Q 70.57 53.03 70.30 53.30
  Q 70.04 53.58 70.29 53.72
  Z
  M 143.28 55.69
  Q 143.57 55.81 143.72 55.67
  A 0.33 0.32 10.0 0 0 143.34 55.15
  Q 143.27 55.18 143.17 55.45
  A 0.19 0.19 0.0 0 0 143.28 55.69
  Z
  M 64.05 60.60
  A 0.63 0.55 40.0 0 0 65.10 60.58
  Q 65.18 60.34 64.87 59.91
  Q 64.57 59.50 64.17 59.89
  Q 63.80 60.25 64.05 60.60
  Z
  M 145.96 63.21
  Q 145.72 63.62 146.09 64.26
  A 0.43 0.43 0.0 0 0 146.79 64.33
  Q 147.25 63.80 147.27 63.74
  A 0.72 0.70 -22.2 0 0 145.96 63.21
  Z
  M 43.10 64.45
  Q 43.27 63.93 43.05 63.70
  A 0.56 0.52 -64.0 0 0 42.15 64.05
  Q 42.08 64.50 42.49 64.67
  Q 42.97 64.86 43.10 64.45
  Z
  M 19.37 65.20
  Q 19.06 64.98 18.81 65.23
  A 0.29 0.29 0.0 0 0 18.98 65.72
  Q 19.00 65.72 19.22 65.71
  A 0.28 0.28 0.0 0 0 19.37 65.20
  Z
  M 51.21 70.83
  A 0.37 0.36 35.6 0 0 51.79 70.74
  Q 51.94 70.42 51.73 70.30
  A 0.42 0.35 19.2 0 0 51.14 70.52
  Q 51.11 70.74 51.21 70.83
  Z
  M 182.20 70.30
  Q 181.96 70.43 181.84 71.16
  Q 181.76 71.64 182.13 71.76
  Q 182.44 71.85 182.71 71.47
  A 0.75 0.53 -78.3 0 0 182.20 70.30
  Z
  M 40.22 78.84
  A 0.84 0.84 0.0 0 0 39.38 78.00
  A 0.84 0.84 0.0 0 0 38.54 78.84
  A 0.84 0.84 0.0 0 0 39.38 79.68
  A 0.84 0.84 0.0 0 0 40.22 78.84
  Z
  M 49.83 84.24
  Q 49.69 84.15 49.50 84.12
  A 0.33 0.31 77.9 0 0 49.20 84.62
  Q 49.36 84.88 49.73 84.76
  A 0.31 0.28 -37.1 0 0 49.83 84.24
  Z
  M 165.7923 88.9749
  A 0.58 0.42 -40.3 0 0 165.0783 89.0297
  A 0.58 0.42 -40.3 0 0 164.9077 89.7251
  A 0.58 0.42 -40.3 0 0 165.6217 89.6703
  A 0.58 0.42 -40.3 0 0 165.7923 88.9749
  Z
  M 19.75 99.44
  A 0.28 0.28 0.0 0 0 19.47 99.16
  A 0.28 0.28 0.0 0 0 19.19 99.44
  A 0.28 0.28 0.0 0 0 19.47 99.72
  A 0.28 0.28 0.0 0 0 19.75 99.44
  Z
  M 154.94 101.19
  A 0.72 0.72 0.0 0 0 154.22 100.47
  A 0.72 0.72 0.0 0 0 153.50 101.19
  A 0.72 0.72 0.0 0 0 154.22 101.91
  A 0.72 0.72 0.0 0 0 154.94 101.19
  Z
  M 177.39 102.74
  Q 177.80 102.93 178.24 102.82
  A 0.37 0.33 -35.0 0 0 178.39 102.18
  Q 178.05 102.00 177.47 102.20
  A 0.31 0.28 -39.5 0 0 177.39 102.74
  Z
  M 26.77 106.72
  Q 27.38 106.75 27.69 106.24
  A 0.25 0.25 0.0 0 0 27.46 105.86
  Q 26.86 105.88 26.56 106.18
  A 0.31 0.31 0.0 0 0 26.77 106.72
  Z
  M 164.03 113.14
  Q 164.14 113.14 164.69 111.78
  A 0.62 0.59 -12.3 0 1 164.85 111.54
  L 165.42 110.97
  A 0.59 0.59 0.0 0 0 165.28 110.04
  Q 164.41 109.58 164.26 108.63
  A 0.16 0.07 12.6 0 0 164.14 108.55
  Q 164.12 108.54 164.09 108.54
  Q 164.07 108.54 164.04 108.55
  A 0.16 0.07 -11.2 0 0 163.92 108.63
  Q 163.75 109.57 162.87 110.01
  A 0.59 0.59 0.0 0 0 162.70 110.94
  L 163.26 111.52
  A 0.62 0.59 13.7 0 1 163.41 111.76
  Q 163.93 113.14 164.03 113.14
  Z
  M 34.10 112.70
  Q 33.92 113.14 34.07 113.49
  A 0.69 0.67 -43.9 0 0 35.31 113.49
  Q 35.52 113.07 35.44 112.77
  A 0.72 0.70 -41.4 0 0 34.10 112.70
  Z
  M 142.89 113.53
  Q 142.96 113.27 142.57 113.17
  A 0.21 0.20 23.1 0 0 142.34 113.26
  Q 142.22 113.45 142.26 113.59
  A 0.35 0.31 -47.6 0 0 142.89 113.53
  Z
  M 58.7845 121.1063
  A 0.48 0.35 -42.4 0 0 58.1940 121.1715
  A 0.48 0.35 -42.4 0 0 58.0755 121.7537
  A 0.48 0.35 -42.4 0 0 58.6660 121.6885
  A 0.48 0.35 -42.4 0 0 58.7845 121.1063
  Z
  M 23.17 122.11
  Q 22.68 122.23 22.52 122.52
  A 0.64 0.50 24.8 0 0 22.91 123.28
  Q 23.68 123.60 23.86 123.00
  A 0.69 0.61 -86.2 0 0 23.17 122.11
  Z
  M 44.99 123.44
  A 0.41 0.38 39.4 0 0 44.21 123.49
  Q 44.20 123.83 44.75 123.72
  Q 45.05 123.66 44.99 123.44
  Z
  M 134.76 124.48
  Q 134.86 124.30 134.85 124.00
  A 0.46 0.26 75.4 0 0 134.37 123.51
  Q 134.02 123.92 134.11 124.38
  A 0.35 0.35 0.0 0 0 134.76 124.48
  Z
  M 154.32 124.20
  A 0.62 0.62 0.0 0 0 153.70 123.58
  A 0.62 0.62 0.0 0 0 153.08 124.20
  A 0.62 0.62 0.0 0 0 153.70 124.82
  A 0.62 0.62 0.0 0 0 154.32 124.20
  Z
  M 168.49 129.61
  Q 168.26 129.58 168.05 129.79
  A 0.59 0.50 -72.2 0 0 168.46 130.77
  Q 168.74 130.69 168.84 130.16
  Q 168.93 129.68 168.49 129.61
  Z
  M 114.5092 129.7101
  A 0.56 0.40 -91.1 0 0 114.1201 130.2777
  A 0.56 0.40 -91.1 0 0 114.5308 130.8299
  A 0.56 0.40 -91.1 0 0 114.9199 130.2623
  A 0.56 0.40 -91.1 0 0 114.5092 129.7101
  Z
  M 53.89 130.51
  Q 53.91 130.35 53.58 130.17
  A 0.18 0.17 -64.2 0 0 53.34 130.26
  Q 53.22 130.51 53.24 130.58
  A 0.35 0.32 -48.5 0 0 53.89 130.51
  Z
  M 94.60 131.16
  A 0.31 0.29 -87.8 0 0 94.20 131.55
  Q 94.27 131.73 94.47 131.80
  A 0.30 0.29 -0.5 0 0 94.85 131.43
  Q 94.78 131.24 94.60 131.16
  Z
  M 73.75 131.35
  A 0.41 0.29 -58.2 0 0 73.15 131.60
  Q 73.11 131.76 73.16 132.05
  A 0.35 0.35 0.0 0 0 73.80 132.17
  Q 74.01 131.84 73.75 131.35
  Z
  M 71.61 146.54
  C 68.50 140.37 59.84 139.84 55.75 145.21
  C 51.07 151.33 54.37 162.23 63.13 162.17
  C 69.29 162.13 72.36 157.48 72.43 151.66
  A 0.66 0.66 0.0 0 0 71.77 150.99
  L 63.96 150.99
  A 0.38 0.38 0.0 0 0 63.58 151.37
  L 63.58 154.08
  A 0.39 0.39 0.0 0 0 63.97 154.47
  L 67.45 154.47
  A 0.40 0.40 0.0 0 1 67.83 154.99
  Q 66.49 158.98 62.28 158.42
  C 58.67 157.93 57.54 153.99 57.87 150.82
  C 58.44 145.28 63.95 143.13 67.56 147.92
  A 0.81 0.80 62.0 0 0 68.45 148.20
  L 71.33 147.23
  A 0.50 0.49 67.5 0 0 71.61 146.54
  Z
  M 85.3374 141.4608
  A 10.43 9.67 -89.3 0 0 75.5407 151.7719
  A 10.43 9.67 -89.3 0 0 85.0826 162.3192
  A 10.43 9.67 -89.3 0 0 94.8793 152.0081
  A 10.43 9.67 -89.3 0 0 85.3374 141.4608
  Z
  M 19.78 151.85
  Q 19.81 161.02 19.83 161.17
  A 0.73 0.73 0.0 0 0 20.55 161.81
  L 31.50 161.86
  A 0.48 0.48 0.0 0 0 31.98 161.38
  L 31.98 158.65
  A 0.48 0.47 90.0 0 0 31.51 158.17
  L 23.97 158.17
  A 0.39 0.38 0.0 0 1 23.58 157.79
  L 23.58 153.93
  A 0.40 0.40 0.0 0 1 23.98 153.53
  L 29.91 153.53
  A 0.73 0.72 5.6 0 0 30.63 152.95
  Q 30.74 152.41 30.74 151.82
  Q 30.74 151.25 30.62 150.70
  A 0.73 0.72 -5.9 0 0 29.90 150.13
  L 23.97 150.16
  A 0.40 0.40 0.0 0 1 23.57 149.76
  L 23.55 145.90
  A 0.39 0.38 -0.3 0 1 23.94 145.52
  L 31.48 145.48
  A 0.48 0.47 89.7 0 0 31.95 145.00
  L 31.93 142.27
  A 0.48 0.48 0.0 0 0 31.45 141.79
  L 20.50 141.89
  A 0.73 0.73 0.0 0 0 19.78 142.53
  Q 19.76 142.69 19.78 151.85
  Z
  M 51.06 161.67
  L 47.01 154.68
  A 0.47 0.46 -31.6 0 1 47.16 154.06
  Q 51.50 151.22 50.10 146.25
  C 48.52 140.68 42.13 141.82 37.15 141.86
  A 0.63 0.63 0.0 0 0 36.51 142.50
  L 36.53 161.30
  A 0.54 0.54 0.0 0 0 37.07 161.84
  L 39.78 161.84
  A 0.52 0.52 0.0 0 0 40.30 161.31
  L 40.30 156.11
  A 1.52 1.51 30.0 0 1 43.12 155.36
  L 46.76 161.65
  A 0.38 0.36 74.2 0 0 47.08 161.84
  L 50.96 161.84
  A 0.12 0.11 75.8 0 0 51.06 161.67
  Z
  M 110.82 143.80
  C 107.10 140.65 98.73 140.46 97.97 146.71
  C 97.24 152.64 103.00 153.01 106.56 154.44
  Q 107.99 155.01 108.09 155.91
  A 2.56 2.22 -8.0 0 1 105.93 158.39
  Q 102.59 158.94 99.80 156.28
  A 0.74 0.74 0.0 0 0 98.68 156.38
  L 97.50 158.06
  A 0.93 0.93 0.0 0 0 97.57 159.21
  C 100.67 162.74 107.62 163.49 110.74 159.70
  C 112.46 157.62 112.62 154.47 110.84 152.39
  C 109.09 150.34 102.52 149.54 101.90 147.75
  A 2.13 1.82 -12.5 0 1 103.74 145.31
  Q 106.46 144.94 108.58 146.79
  A 0.74 0.73 -51.8 0 0 109.66 146.66
  L 110.95 144.82
  A 0.76 0.76 0.0 0 0 110.82 143.80
  Z
  M 125.91 150.64
  A 0.37 0.37 0.0 0 0 125.54 150.27
  L 120.19 150.27
  A 0.37 0.37 0.0 0 1 119.82 149.90
  L 119.82 145.72
  A 0.37 0.37 0.0 0 1 120.19 145.35
  L 126.98 145.35
  A 0.37 0.37 0.0 0 0 127.35 144.98
  L 127.35 142.19
  A 0.37 0.37 0.0 0 0 126.98 141.82
  L 116.43 141.82
  A 0.37 0.37 0.0 0 0 116.06 142.19
  L 116.06 161.45
  A 0.37 0.37 0.0 0 0 116.43 161.82
  L 119.44 161.82
  A 0.37 0.37 0.0 0 0 119.81 161.45
  L 119.81 154.29
  A 0.37 0.37 0.0 0 1 120.18 153.92
  L 125.54 153.92
  A 0.37 0.37 0.0 0 0 125.91 153.55
  L 125.91 150.64
  Z
  M 137.12 157.74
  Q 137.91 157.74 140.21 157.69
  A 0.97 0.97 0.0 0 1 141.15 158.35
  L 142.17 161.38
  A 0.70 0.69 -9.3 0 0 142.83 161.85
  L 145.83 161.85
  A 0.49 0.48 -9.4 0 0 146.29 161.21
  L 140.03 142.69
  A 1.08 1.08 0.0 0 0 139.16 141.96
  Q 138.18 141.82 137.13 141.82
  Q 136.08 141.82 135.09 141.96
  A 1.08 1.08 0.0 0 0 134.22 142.69
  L 127.94 161.20
  A 0.49 0.48 9.5 0 0 128.40 161.84
  L 131.40 161.84
  A 0.70 0.69 9.4 0 0 132.06 161.38
  L 133.09 158.35
  A 0.97 0.97 0.0 0 1 134.02 157.69
  Q 136.33 157.74 137.12 157.74
  Z
  M 168.28 151.88
  Q 168.31 161.03 168.33 161.18
  A 0.73 0.73 0.0 0 0 169.05 161.82
  L 179.98 161.86
  A 0.48 0.48 0.0 0 0 180.46 161.38
  L 180.46 158.66
  A 0.48 0.47 90.0 0 0 179.99 158.18
  L 172.46 158.18
  A 0.39 0.38 -0.0 0 1 172.07 157.80
  L 172.07 153.95
  A 0.40 0.40 0.0 0 1 172.47 153.55
  L 178.39 153.55
  A 0.73 0.72 5.6 0 0 179.11 152.97
  Q 179.22 152.42 179.22 151.84
  Q 179.22 151.27 179.10 150.73
  A 0.73 0.72 -5.9 0 0 178.38 150.15
  L 172.46 150.18
  A 0.40 0.40 0.0 0 1 172.06 149.78
  L 172.04 145.93
  A 0.39 0.38 -0.3 0 1 172.43 145.55
  L 179.96 145.51
  A 0.48 0.47 89.7 0 0 180.42 145.03
  L 180.41 142.30
  A 0.48 0.48 0.0 0 0 179.93 141.83
  L 169.00 141.93
  A 0.73 0.73 0.0 0 0 168.28 142.57
  Q 168.26 142.72 168.28 151.88
  Z
  M 164.32 161.66
  L 160.30 154.71
  A 0.46 0.46 0.0 0 1 160.45 154.09
  Q 164.76 151.27 163.37 146.33
  C 161.81 140.79 155.45 141.92 150.50 141.96
  A 0.63 0.63 0.0 0 0 149.87 142.59
  L 149.87 161.28
  A 0.54 0.54 0.0 0 0 150.41 161.82
  L 153.10 161.82
  A 0.52 0.52 0.0 0 0 153.62 161.30
  L 153.62 156.13
  A 1.51 1.50 30.0 0 1 156.43 155.38
  L 160.04 161.64
  A 0.38 0.36 74.2 0 0 160.36 161.83
  L 164.22 161.83
  A 0.12 0.11 75.9 0 0 164.32 161.66
  Z"
/>
<path fill="#7c8b9e" d="
  M 91.78 16.17
  A 0.29 0.25 38.5 0 1 91.30 16.19
  Q 91.07 15.89 91.20 15.46
  A 0.29 0.26 -54.1 0 1 91.69 15.35
  Q 91.93 15.77 91.78 16.17
  Z"
/>
<path fill="#3d1745" d="
  M 59.56 16.19
  Q 60.15 15.75 60.48 15.82
  A 0.46 0.45 -63.7 0 1 60.72 16.57
  Q 60.36 16.98 59.66 16.78
  A 0.33 0.33 0.0 0 1 59.56 16.19
  Z"
/>
<path fill="#7c8b9e" d="
  M 158.60 18.47
  Q 158.65 18.63 158.32 18.95
  A 0.74 0.64 -29.4 0 1 157.12 18.71
  Q 157.06 18.35 157.59 18.13
  A 0.80 0.64 -20.0 0 1 158.60 18.47
  Z"
/>
<ellipse fill="#7c8b9e" cx="0.00" cy="0.00" transform="translate(20.63,19.85) rotate(-84.4)" rx="0.72" ry="0.53"/>
<path fill="#7c8b9e" d="
  M 179.15 21.22
  A 0.27 0.25 -47.5 0 1 179.15 21.68
  Q 178.76 21.91 178.36 21.70
  A 0.32 0.32 0.0 0 1 178.47 21.10
  Q 178.80 21.07 179.15 21.22
  Z"
/>
<path fill="#6b1d43" d="
  M 122.91 22.39
  Q 123.14 22.01 123.55 22.00
  A 0.39 0.24 -65.8 0 1 123.63 22.57
  Q 123.52 22.72 123.28 22.82
  A 0.30 0.30 0.0 0 1 122.91 22.39
  Z"
/>
<path fill="#7c8b9e" d="
  M 106.25 23.25
  C 105.99 22.92 106.25 22.06 106.78 22.27
  Q 106.92 22.32 106.98 22.72
  A 0.52 0.41 -74.4 0 1 106.25 23.25
  Z"
/>
<path fill="#7c8b9e" d="
  M 70.05 26.13
  A 0.37 0.37 0.0 0 1 70.12 26.83
  Q 69.93 26.92 69.49 26.87
  A 0.39 0.37 -55.5 0 1 69.37 26.16
  Q 69.60 26.03 70.05 26.13
  Z"
/>
<path fill="#7c8b9e" d="
  M 44.60 28.40
  Q 44.93 28.08 45.54 28.27
  Q 45.80 28.35 45.78 28.81
  Q 45.77 29.08 45.42 29.16
  A 0.68 0.47 8.1 0 1 44.60 28.40
  Z"
/>
<path fill="#7c8b9e" d="
  M 132.26 30.31
  Q 132.01 30.09 132.23 29.46
  A 0.28 0.27 36.4 0 1 132.71 29.39
  Q 132.89 29.65 132.70 30.19
  A 0.27 0.27 0.0 0 1 132.26 30.31
  Z"
/>
<path fill="#7c8b9e" d="
  M 114.90 31.41
  A 0.49 0.49 0.0 0 1 114.13 31.45
  Q 113.06 30.21 114.47 29.80
  A 0.72 0.72 0.0 0 1 115.26 30.91
  L 114.90 31.41
  Z"
/>
<ellipse fill="#7c8b9e" cx="0.00" cy="0.00" transform="translate(31.16,32.11) rotate(-39.0)" rx="0.88" ry="0.76"/>
<circle fill="#6b1d43" cx="95.48" cy="31.46" r="0.29"/>
<ellipse fill="#7c8b9e" cx="0.00" cy="0.00" transform="translate(144.31,34.02) rotate(-88.9)" rx="0.85" ry="0.63"/>
<path fill="#7c8b9e" d="
  M 82.62 34.73
  Q 82.83 34.96 82.78 35.19
  A 0.33 0.33 0.0 0 1 82.16 35.29
  Q 82.11 35.19 82.06 35.03
  A 0.33 0.32 16.4 0 1 82.62 34.73
  Z"
/>
<path fill="#fffffa" d="
  M 57.69 51.79
  Q 51.73 53.29 48.67 50.56
  Q 45.52 47.75 46.72 42.33
  A 7.51 7.32 -54.5 0 1 57.69 43.54
  A 7.53 7.31 -53.7 0 1 57.69 51.79
  Z"
/>
<path fill="#4187d2" d="
  M 96.04 43.45
  A 0.09 0.08 -86.4 0 1 96.11 43.54
  L 96.11 43.82
  A 0.12 0.12 0.0 0 1 95.98 43.94
  Q 78.55 42.76 61.39 45.23
  A 0.56 0.55 85.6 0 1 60.75 44.68
  L 60.75 44.58
  A 0.82 0.81 -3.1 0 1 61.48 43.77
  Q 76.95 41.93 84.52 42.39
  Q 89.86 42.71 96.04 43.45
  Z"
/>
<path fill="#7c8b9e" d="
  M 46.72 42.33
  Q 45.52 47.75 48.67 50.56
  Q 51.73 53.29 57.69 51.79
  A 7.50 7.31 -53.1 0 1 49.84 55.11
  Q 46.23 52.73 44.19 48.50
  A 7.53 7.34 -56.3 0 1 46.72 42.33
  Z"
/>
<path fill="#7c8b9e" d="
  M 21.88 45.00
  A 0.36 0.34 31.4 0 1 21.24 45.13
  Q 21.04 44.86 21.14 44.46
  A 0.38 0.38 0.0 0 1 21.85 44.37
  Q 21.93 44.54 21.88 45.00
  Z"
/>
<path fill="#062772" d="
  M 144.41 93.72
  L 157.32 85.04
  L 161.52 81.77
  A 0.65 0.65 0.0 0 0 161.71 80.97
  L 160.41 78.13
  C 164.77 72.69 166.82 70.00 167.83 63.20
  A 0.38 0.37 -81.2 0 0 167.53 62.78
  L 167.51 62.78
  A 0.35 0.35 0.0 0 0 167.10 63.06
  Q 166.94 64.07 166.09 64.67
  Q 167.25 52.57 156.75 47.26
  Q 150.94 44.32 147.61 44.95
  A 0.04 0.04 0.0 0 1 147.56 44.91
  Q 147.58 44.76 147.42 44.72
  A 0.04 0.04 0.0 0 1 147.43 44.64
  Q 150.89 44.47 151.50 44.56
  C 158.52 45.58 168.54 49.43 171.79 55.85
  C 175.50 63.19 171.69 71.99 166.38 77.90
  Q 157.21 88.11 144.41 93.72
  Z"
/>
<path fill="#7c8b9e" d="
  M 138.11 46.51
  Q 138.13 46.33 138.25 46.10
  A 0.30 0.29 46.1 0 1 138.77 46.12
  Q 138.89 46.38 138.70 46.68
  A 0.32 0.30 -27.0 0 1 138.11 46.51
  Z"
/>
<path fill="#7c8b9e" d="
  M 178.61 46.93
  Q 178.81 47.10 178.86 47.41
  A 0.34 0.32 -79.1 0 1 178.37 47.76
  Q 178.16 47.62 178.18 47.20
  A 0.31 0.26 -71.7 0 1 178.61 46.93
  Z"
/>
<path fill="#3d1745" d="
  M 119.17 50.56
  L 106.56 49.49
  Q 98.69 49.17 90.23 51.42
  Q 87.68 51.63 85.28 53.15
  A 0.46 0.45 45.9 0 0 85.27 53.91
  Q 85.78 54.27 85.56 54.81
  A 0.73 0.72 -1.2 0 1 85.17 55.21
  Q 81.39 56.92 79.12 60.13
  L 73.69 65.19
  A 0.46 0.46 0.0 0 0 74.00 65.99
  L 75.39 65.99
  A 0.48 0.48 0.0 0 1 75.57 66.91
  Q 73.41 67.76 73.08 69.84
  Q 68.54 74.47 66.20 80.67
  Q 63.01 80.50 59.62 84.65
  Q 59.14 85.23 58.35 84.31
  L 65.10 76.70
  A 1.41 1.38 -24.5 0 0 65.46 75.77
  C 65.50 70.55 69.23 66.55 72.87 62.87
  A 5.36 5.24 -8.2 0 0 73.72 61.76
  Q 75.59 58.49 79.13 55.79
  A 0.51 0.50 56.3 0 0 79.26 55.13
  L 79.13 54.89
  A 0.24 0.24 0.0 0 0 78.80 54.80
  L 72.52 58.43
  A 0.15 0.14 -29.2 0 1 72.32 58.38
  L 72.19 58.15
  A 0.07 0.07 0.0 0 1 72.20 58.06
  Q 77.02 53.93 81.80 52.01
  Q 86.24 50.23 93.62 48.86
  A 1.37 1.34 24.9 0 0 94.07 48.70
  L 95.32 47.98
  A 2.57 2.52 25.3 0 1 96.27 47.65
  Q 108.41 45.79 119.17 50.56
  Z"
/>
<path fill="#fffffa" d="
  M 49.84 55.11
  A 7.43 7.18 -43.7 0 1 46.98 53.78
  A 7.49 7.32 -49.8 0 1 44.19 48.50
  Q 46.23 52.73 49.84 55.11
  Z"
/>
<path fill="#6b1d43" d="
  M 119.17 50.56
  L 125.25 53.46
  Q 125.09 55.79 125.88 57.77
  A 1.30 1.26 -83.6 0 0 126.33 58.35
  L 131.11 61.73
  Q 134.95 67.05 139.92 67.57
  Q 149.36 68.56 158.08 65.33
  A 0.41 0.41 0.0 0 1 158.43 66.07
  L 154.70 68.22
  A 0.49 0.49 0.0 0 0 155.09 69.11
  Q 157.60 68.32 159.68 66.13
  A 0.42 0.42 0.0 0 1 160.18 66.05
  Q 160.53 66.25 160.39 66.79
  Q 156.42 72.58 150.70 77.39
  Q 150.23 71.38 147.50 72.08
  C 141.96 72.38 138.42 71.88 135.19 68.83
  Q 129.20 63.19 122.32 58.68
  Q 120.98 57.80 119.45 57.28
  Q 118.97 56.79 118.97 57.05
  Q 119.20 55.96 118.98 55.24
  A 1.33 1.31 9.7 0 0 118.49 54.56
  Q 113.38 50.95 106.56 49.49
  L 119.17 50.56
  Z"
/>
<path fill="#a3343b" d="
  M 106.56 49.49
  Q 113.38 50.95 118.49 54.56
  A 1.33 1.31 9.7 0 1 118.98 55.24
  Q 119.20 55.96 118.97 57.05
  Q 112.40 54.35 105.25 54.24
  Q 103.06 53.79 100.75 53.64
  Q 100.05 53.59 99.60 54.00
  Q 98.94 54.60 98.64 54.70
  C 91.96 56.93 88.48 58.48 83.22 62.13
  A 2.92 2.76 -2.3 0 0 82.46 62.91
  Q 81.37 64.62 79.28 66.52
  Q 78.67 67.08 76.83 69.54
  Q 75.66 71.10 74.03 72.26
  Q 74.31 71.17 73.08 69.84
  Q 73.41 67.76 75.57 66.91
  A 0.48 0.48 0.0 0 0 75.39 65.99
  L 74.00 65.99
  A 0.46 0.46 0.0 0 1 73.69 65.19
  L 79.12 60.13
  L 89.53 54.22
  A 0.99 0.97 78.3 0 0 90.02 53.46
  L 90.23 51.42
  Q 98.69 49.17 106.56 49.49
  Z"
/>
<path fill="#6b1d43" d="
  M 90.23 51.42
  L 90.02 53.46
  A 0.99 0.97 78.3 0 1 89.53 54.22
  L 79.12 60.13
  Q 81.39 56.92 85.17 55.21
  A 0.73 0.72 -1.2 0 0 85.56 54.81
  Q 85.78 54.27 85.27 53.91
  A 0.46 0.45 45.9 0 1 85.28 53.15
  Q 87.68 51.63 90.23 51.42
  Z"
/>
<path fill="#4187d2" d="
  M 47.39 99.07
  L 45.60 104.68
  C 35.10 100.90 24.29 92.85 22.26 81.30
  C 19.91 67.99 30.95 56.97 42.11 51.46
  A 0.37 0.37 0.0 0 1 42.61 51.96
  L 42.14 52.90
  A 1.41 1.39 -4.2 0 1 41.69 53.41
  C 32.19 59.95 24.10 69.45 27.52 81.65
  C 29.53 88.83 36.96 94.84 43.70 97.59
  Q 45.71 98.40 47.39 99.07
  Z"
/>
<path fill="#7c8b9e" d="
  M 155.55 53.22
  Q 155.52 53.22 154.63 52.88
  A 0.40 0.40 0.0 0 1 154.58 52.15
  Q 155.04 51.89 155.83 52.36
  A 0.46 0.46 0.0 0 1 155.55 53.22
  Z"
/>
<path fill="#7c8b9e" d="
  M 70.29 53.72
  Q 70.04 53.58 70.30 53.30
  Q 70.57 53.03 71.05 53.22
  A 0.41 0.32 43.6 0 1 71.15 53.91
  Q 70.78 53.99 70.29 53.72
  Z"
/>
<path fill="#3d1745" d="
  M 131.11 61.73
  L 126.33 58.35
  A 1.30 1.26 -83.6 0 1 125.88 57.77
  Q 125.09 55.79 125.25 53.46
  Q 131.49 56.91 136.29 62.43
  A 0.05 0.05 0.0 0 1 136.23 62.50
  L 129.55 57.80
  A 0.31 0.31 0.0 0 0 129.14 58.25
  Q 130.41 59.78 131.11 61.73
  Z"
/>
<path fill="#c42e37" d="
  M 105.25 54.24
  Q 94.51 56.47 85.41 62.57
  Q 83.29 63.98 81.12 66.06
  Q 78.05 69.00 77.33 70.09
  Q 74.11 75.01 68.00 87.99
  Q 67.57 88.88 66.25 88.74
  Q 66.31 88.33 65.78 88.11
  A 0.52 0.51 40.6 0 0 65.32 88.14
  L 58.50 92.08
  A 0.42 0.42 0.0 0 1 57.87 91.70
  L 57.90 91.21
  L 59.08 90.10
  Q 63.01 86.32 67.30 83.06
  Q 68.53 82.13 69.76 79.42
  Q 69.77 79.40 69.78 79.38
  L 74.03 72.26
  Q 75.66 71.10 76.83 69.54
  Q 78.67 67.08 79.28 66.52
  Q 81.37 64.62 82.46 62.91
  A 2.92 2.76 -2.3 0 1 83.22 62.13
  C 88.48 58.48 91.96 56.93 98.64 54.70
  Q 98.94 54.60 99.60 54.00
  Q 100.05 53.59 100.75 53.64
  Q 103.06 53.79 105.25 54.24
  Z"
/>
<path fill="#e95328" d="
  M 118.97 57.05
  Q 118.97 56.79 119.45 57.28
  C 121.39 59.67 124.35 61.61 126.07 63.16
  Q 130.48 67.14 133.80 72.65
  A 3.08 3.04 -88.1 0 0 134.65 73.57
  L 141.25 78.22
  A 1.07 1.07 0.0 0 1 141.66 79.39
  L 140.72 82.57
  A 0.51 0.51 0.0 0 0 141.42 83.18
  Q 142.88 82.50 144.33 82.52
  Q 141.24 85.42 137.53 87.57
  Q 136.29 88.29 135.62 89.18
  A 0.41 0.41 0.0 0 0 136.16 89.77
  L 151.25 80.65
  L 149.91 85.92
  L 141.17 91.06
  Q 139.28 91.64 135.62 93.63
  Q 130.24 96.55 118.22 100.58
  Q 115.11 101.62 109.14 103.07
  Q 104.53 104.18 100.07 105.64
  Q 85.75 109.70 70.92 109.20
  Q 69.35 109.49 67.81 108.67
  L 68.21 104.97
  Q 68.89 105.18 69.40 105.12
  A 0.36 0.36 0.0 0 0 69.64 104.54
  Q 69.13 103.88 67.97 103.80
  Q 66.71 102.29 65.28 101.11
  C 62.77 99.07 61.92 97.67 62.18 94.75
  A 1.56 1.55 -20.2 0 1 62.63 93.79
  Q 64.00 92.44 64.27 90.75
  L 66.25 88.74
  Q 67.57 88.88 68.00 87.99
  Q 74.11 75.01 77.33 70.09
  Q 78.05 69.00 81.12 66.06
  Q 83.29 63.98 85.41 62.57
  Q 94.51 56.47 105.25 54.24
  Q 112.40 54.35 118.97 57.05
  Z
  M 93.77 59.77
  Q 81.67 64.82 77.01 76.52
  Q 76.16 78.64 74.26 87.18
  Q 71.52 92.95 74.20 97.28
  C 77.15 102.04 84.16 102.80 89.63 103.11
  A 1.52 1.49 -24.8 0 1 90.39 103.38
  L 91.76 104.34
  A 1.41 1.40 -27.5 0 0 92.56 104.59
  Q 108.04 104.38 120.69 95.84
  L 128.60 91.32
  Q 132.72 88.72 136.40 82.55
  A 3.01 3.01 0.0 0 0 136.68 80.06
  Q 136.12 78.35 134.71 76.27
  Q 134.44 75.87 127.55 66.94
  Q 120.23 57.45 109.88 57.24
  Q 100.58 56.38 93.77 59.77
  Z
  M 70.55 88.79
  L 65.69 93.65
  A 2.13 2.12 -45.3 0 0 65.70 96.67
  Q 67.01 97.94 69.16 98.78
  A 0.25 0.25 0.0 0 0 69.46 98.41
  C 67.90 96.12 69.03 93.89 69.70 91.59
  A 2.25 2.20 73.7 0 1 70.12 90.80
  Q 70.70 90.08 70.95 89.01
  A 0.24 0.24 0.0 0 0 70.55 88.79
  Z"
/>
<path fill="#7c8b9e" d="
  M 143.17 55.45
  Q 143.27 55.18 143.34 55.15
  A 0.33 0.32 10.0 0 1 143.72 55.67
  Q 143.57 55.81 143.28 55.69
  A 0.19 0.19 0.0 0 1 143.17 55.45
  Z"
/>
<path fill="#fec53b" d="
  M 109.88 57.24
  Q 117.38 60.38 120.61 62.64
  Q 126.36 66.65 129.38 74.22
  Q 130.34 77.35 131.06 79.83
  Q 132.02 83.14 128.95 84.28
  Q 128.07 67.19 112.71 62.26
  Q 104.85 59.76 97.69 62.43
  Q 79.43 69.24 80.40 88.97
  Q 80.84 97.97 89.63 99.46
  L 87.46 100.25
  A 1.31 1.31 0.0 0 1 86.52 100.25
  C 83.52 99.08 80.10 98.24 79.43 95.07
  Q 77.68 86.68 79.82 78.66
  Q 80.16 77.37 82.41 73.43
  Q 83.63 71.30 86.01 68.91
  Q 90.11 64.78 93.77 59.77
  Q 100.58 56.38 109.88 57.24
  Z"
/>
<path fill="#ff8712" d="
  M 128.60 91.32
  L 134.63 81.59
  A 1.12 1.12 0.0 0 0 134.70 80.53
  Q 132.87 76.61 129.38 74.22
  Q 126.36 66.65 120.61 62.64
  Q 117.38 60.38 109.88 57.24
  Q 120.23 57.45 127.55 66.94
  Q 134.44 75.87 134.71 76.27
  Q 136.12 78.35 136.68 80.06
  A 3.01 3.01 0.0 0 1 136.40 82.55
  Q 132.72 88.72 128.60 91.32
  Z"
/>
<path fill="#c42e37" d="
  M 147.50 72.08
  Q 146.06 73.26 144.04 73.02
  A 0.30 0.29 11.6 0 0 143.72 73.22
  L 143.64 73.49
  A 0.35 0.35 0.0 0 0 143.91 73.93
  Q 146.55 74.45 147.86 76.35
  A 1.08 1.06 -53.2 0 1 147.99 77.33
  L 146.93 80.29
  L 144.33 82.52
  Q 142.88 82.50 141.42 83.18
  A 0.51 0.51 0.0 0 1 140.72 82.57
  L 141.66 79.39
  A 1.07 1.07 0.0 0 0 141.25 78.22
  L 134.65 73.57
  A 3.08 3.04 -88.1 0 1 133.80 72.65
  Q 130.48 67.14 126.07 63.16
  C 124.35 61.61 121.39 59.67 119.45 57.28
  Q 120.98 57.80 122.32 58.68
  Q 129.20 63.19 135.19 68.83
  C 138.42 71.88 141.96 72.38 147.50 72.08
  Z"
/>
<path fill="#6b1d43" d="
  M 64.05 60.60
  Q 63.80 60.25 64.17 59.89
  Q 64.57 59.50 64.87 59.91
  Q 65.18 60.34 65.10 60.58
  A 0.63 0.55 40.0 0 1 64.05 60.60
  Z"
/>
<path fill="#ffae0e" d="
  M 93.77 59.77
  Q 90.11 64.78 86.01 68.91
  Q 83.63 71.30 82.41 73.43
  Q 80.16 77.37 79.82 78.66
  Q 77.68 86.68 79.43 95.07
  C 80.10 98.24 83.52 99.08 86.52 100.25
  A 1.31 1.31 0.0 0 0 87.46 100.25
  L 89.63 99.46
  Q 110.46 98.87 126.76 86.60
  L 128.95 84.28
  Q 132.02 83.14 131.06 79.83
  Q 130.34 77.35 129.38 74.22
  Q 132.87 76.61 134.70 80.53
  A 1.12 1.12 0.0 0 1 134.63 81.59
  L 128.60 91.32
  L 120.69 95.84
  Q 107.61 100.19 103.73 101.02
  Q 90.97 103.75 80.07 98.42
  Q 73.84 95.37 74.26 87.18
  Q 76.16 78.64 77.01 76.52
  Q 81.67 64.82 93.77 59.77
  Z"
/>
<path fill="#030914" d="
  M 112.71 62.26
  L 105.19 64.02
  A 0.30 0.30 0.0 0 0 105.21 64.61
  C 115.60 66.40 122.02 74.65 122.02 85.20
  A 0.80 0.80 0.0 0 0 122.52 85.94
  Q 123.87 86.50 125.50 85.89
  Q 126.19 85.63 126.76 86.60
  Q 110.46 98.87 89.63 99.46
  Q 80.84 97.97 80.40 88.97
  Q 79.43 69.24 97.69 62.43
  Q 104.85 59.76 112.71 62.26
  Z"
/>
<path fill="#210f2d" d="
  M 128.95 84.28
  L 126.76 86.60
  Q 126.19 85.63 125.50 85.89
  Q 123.87 86.50 122.52 85.94
  A 0.80 0.80 0.0 0 1 122.02 85.20
  C 122.02 74.65 115.60 66.40 105.21 64.61
  A 0.30 0.30 0.0 0 1 105.19 64.02
  L 112.71 62.26
  Q 128.07 67.19 128.95 84.28
  Z"
/>
<path fill="#a3343b" d="
  M 160.41 78.13
  L 155.99 81.55
  L 149.91 85.92
  L 151.25 80.65
  Q 152.53 79.59 155.35 77.84
  Q 158.51 75.88 161.81 72.53
  Q 165.24 68.66 166.09 64.67
  Q 166.94 64.07 167.10 63.06
  A 0.35 0.35 0.0 0 1 167.51 62.78
  L 167.53 62.78
  A 0.38 0.37 -81.2 0 1 167.83 63.20
  C 166.82 70.00 164.77 72.69 160.41 78.13
  Z"
/>
<path fill="#7c8b9e" d="
  M 145.96 63.21
  A 0.72 0.70 -22.2 0 1 147.27 63.74
  Q 147.25 63.80 146.79 64.33
  A 0.43 0.43 0.0 0 1 146.09 64.26
  Q 145.72 63.62 145.96 63.21
  Z"
/>
<path fill="#7c8b9e" d="
  M 43.10 64.45
  Q 42.97 64.86 42.49 64.67
  Q 42.08 64.50 42.15 64.05
  A 0.56 0.52 -64.0 0 1 43.05 63.70
  Q 43.27 63.93 43.10 64.45
  Z"
/>
<path fill="#3d1745" d="
  M 19.37 65.20
  A 0.28 0.28 0.0 0 1 19.22 65.71
  Q 19.00 65.72 18.98 65.72
  A 0.29 0.29 0.0 0 1 18.81 65.23
  Q 19.06 64.98 19.37 65.20
  Z"
/>
<path fill="#3d1745" d="
  M 160.39 66.79
  L 161.93 67.20
  A 0.52 0.52 0.0 0 1 162.27 67.94
  L 160.53 71.40
  A 0.84 0.84 0.0 0 0 161.37 72.61
  Q 161.56 72.59 161.81 72.53
  Q 158.51 75.88 155.35 77.84
  Q 152.53 79.59 151.25 80.65
  L 136.16 89.77
  A 0.41 0.41 0.0 0 1 135.62 89.18
  Q 136.29 88.29 137.53 87.57
  Q 141.24 85.42 144.33 82.52
  L 146.93 80.29
  Q 149.38 79.50 150.70 77.39
  Q 156.42 72.58 160.39 66.79
  Z"
/>
<path fill="#6b1d43" d="
  M 74.03 72.26
  L 69.78 79.38
  Q 69.77 79.40 69.76 79.42
  Q 68.53 82.13 67.30 83.06
  Q 63.01 86.32 59.08 90.10
  L 59.48 86.40
  L 66.20 80.67
  Q 68.54 74.47 73.08 69.84
  Q 74.31 71.17 74.03 72.26
  Z"
/>
<path fill="#7c8b9e" d="
  M 51.21 70.83
  Q 51.11 70.74 51.14 70.52
  A 0.42 0.35 19.2 0 1 51.73 70.30
  Q 51.94 70.42 51.79 70.74
  A 0.37 0.36 35.6 0 1 51.21 70.83
  Z"
/>
<path fill="#7c8b9e" d="
  M 182.20 70.30
  A 0.75 0.53 -78.3 0 1 182.71 71.47
  Q 182.44 71.85 182.13 71.76
  Q 181.76 71.64 181.84 71.16
  Q 181.96 70.43 182.20 70.30
  Z"
/>
<path fill="#a3343b" d="
  M 150.70 77.39
  Q 149.38 79.50 146.93 80.29
  L 147.99 77.33
  A 1.08 1.06 -53.2 0 0 147.86 76.35
  Q 146.55 74.45 143.91 73.93
  A 0.35 0.35 0.0 0 1 143.64 73.49
  L 143.72 73.22
  A 0.30 0.29 11.6 0 1 144.04 73.02
  Q 146.06 73.26 147.50 72.08
  Q 150.23 71.38 150.70 77.39
  Z"
/>
<circle fill="#fffffa" cx="39.38" cy="78.84" r="0.84"/>
<path fill="#3d1745" d="
  M 160.41 78.13
  L 161.71 80.97
  A 0.65 0.65 0.0 0 1 161.52 81.77
  L 157.32 85.04
  L 155.99 81.55
  L 160.41 78.13
  Z"
/>
<path fill="#210f2d" d="
  M 66.20 80.67
  L 59.48 86.40
  L 57.04 87.98
  L 52.78 88.87
  A 0.38 0.37 22.2 0 1 52.49 88.19
  L 58.35 84.31
  Q 59.14 85.23 59.62 84.65
  Q 63.01 80.50 66.20 80.67
  Z"
/>
<path fill="#6b1d43" d="
  M 155.99 81.55
  L 157.32 85.04
  L 144.41 93.72
  L 130.95 99.31
  L 128.92 99.79
  L 141.17 91.06
  L 149.91 85.92
  L 155.99 81.55
  Z"
/>
<path fill="#3d1745" d="
  M 49.83 84.24
  A 0.31 0.28 -37.1 0 1 49.73 84.76
  Q 49.36 84.88 49.20 84.62
  A 0.33 0.31 77.9 0 1 49.50 84.12
  Q 49.69 84.15 49.83 84.24
  Z"
/>
<path fill="#3d1745" d="
  M 59.48 86.40
  L 59.08 90.10
  L 57.90 91.21
  Q 53.53 94.69 52.57 100.25
  Q 52.52 100.53 52.38 100.65
  Q 52.21 100.80 51.98 100.86
  L 48.91 99.79
  Q 50.95 95.70 54.20 92.66
  A 0.39 0.39 0.0 0 0 53.74 92.04
  L 49.54 94.46
  A 0.28 0.28 0.0 0 1 49.16 94.36
  L 49.00 94.08
  A 0.49 0.48 -32.7 0 1 49.15 93.44
  L 57.04 87.98
  L 59.48 86.40
  Z"
/>
<path fill="#ff8712" d="
  M 74.26 87.18
  Q 73.84 95.37 80.07 98.42
  Q 90.97 103.75 103.73 101.02
  Q 107.61 100.19 120.69 95.84
  Q 108.04 104.38 92.56 104.59
  A 1.41 1.40 -27.5 0 1 91.76 104.34
  L 90.39 103.38
  A 1.52 1.49 -24.8 0 0 89.63 103.11
  C 84.16 102.80 77.15 102.04 74.20 97.28
  Q 71.52 92.95 74.26 87.18
  Z"
/>
<path fill="#6b1d43" d="
  M 66.25 88.74
  L 64.27 90.75
  L 58.64 96.45
  Q 56.85 98.98 57.27 102.47
  L 52.46 100.98
  Q 52.14 101.16 51.98 100.86
  Q 52.21 100.80 52.38 100.65
  Q 52.52 100.53 52.57 100.25
  Q 53.53 94.69 57.90 91.21
  L 57.87 91.70
  A 0.42 0.42 0.0 0 0 58.50 92.08
  L 65.32 88.14
  A 0.52 0.51 40.6 0 1 65.78 88.11
  Q 66.31 88.33 66.25 88.74
  Z"
/>
<path fill="#812940" d="
  M 70.95 89.01
  Q 70.70 90.08 70.12 90.80
  A 2.25 2.20 73.7 0 0 69.70 91.59
  C 69.03 93.89 67.90 96.12 69.46 98.41
  A 0.25 0.25 0.0 0 1 69.16 98.78
  Q 67.01 97.94 65.70 96.67
  A 2.13 2.12 -45.3 0 1 65.69 93.65
  L 70.55 88.79
  A 0.24 0.24 0.0 0 1 70.95 89.01
  Z"
/>
<ellipse fill="#3d1745" cx="0.00" cy="0.00" transform="translate(165.35,89.35) rotate(-40.3)" rx="0.58" ry="0.42"/>
<path fill="#c42e37" d="
  M 64.27 90.75
  Q 64.00 92.44 62.63 93.79
  A 1.56 1.55 -20.2 0 0 62.18 94.75
  C 61.92 97.67 62.77 99.07 65.28 101.11
  Q 66.71 102.29 67.97 103.80
  Q 59.87 103.22 58.64 96.45
  L 64.27 90.75
  Z"
/>
<path fill="#c42e37" d="
  M 141.17 91.06
  L 128.92 99.79
  Q 128.73 100.00 128.57 99.84
  Q 122.50 102.62 116.17 105.42
  Q 112.58 107.01 102.48 110.05
  Q 99.35 110.75 96.31 111.03
  C 93.04 111.34 90.41 112.56 87.18 111.97
  A 0.39 0.39 0.0 0 1 87.19 111.20
  L 100.08 109.20
  A 0.60 0.59 -20.1 0 0 100.50 108.31
  Q 99.85 107.22 100.07 105.64
  Q 104.53 104.18 109.14 103.07
  Q 115.11 101.62 118.22 100.58
  Q 130.24 96.55 135.62 93.63
  Q 139.28 91.64 141.17 91.06
  Z"
/>
<path fill="#812940" d="
  M 58.64 96.45
  Q 59.87 103.22 67.97 103.80
  Q 69.13 103.88 69.64 104.54
  A 0.36 0.36 0.0 0 1 69.40 105.12
  Q 68.89 105.18 68.21 104.97
  L 60.14 103.30
  L 57.27 102.47
  Q 56.85 98.98 58.64 96.45
  Z"
/>
<path fill="#210f2d" d="
  M 128.48 106.60
  Q 130.20 103.30 128.57 99.84
  Q 128.73 100.00 128.92 99.79
  L 130.95 99.31
  Q 133.08 99.61 135.23 99.05
  C 137.31 98.50 138.68 98.86 140.54 99.38
  A 0.38 0.38 0.0 0 1 140.62 100.08
  L 128.48 106.60
  Z"
/>
<circle fill="#3d1745" cx="19.47" cy="99.44" r="0.28"/>
<path fill="#7c8b9e" d="
  M 48.91 99.79
  L 51.98 100.86
  Q 52.14 101.16 52.46 100.98
  Q 50.09 103.82 50.20 106.29
  L 45.60 104.68
  L 47.39 99.07
  L 48.91 99.79
  Z"
/>
<path fill="#3d1745" d="
  M 128.57 99.84
  Q 130.20 103.30 128.48 106.60
  L 122.30 109.86
  L 112.71 113.30
  A 0.21 0.21 0.0 0 0 112.79 113.71
  Q 116.22 113.46 118.17 115.06
  Q 114.81 116.63 112.76 116.35
  Q 103.81 117.09 95.59 115.80
  L 101.88 113.58
  A 0.23 0.23 0.0 0 0 101.90 113.16
  L 100.67 112.54
  Q 102.05 111.83 102.48 110.05
  Q 112.58 107.01 116.17 105.42
  Q 122.50 102.62 128.57 99.84
  Z"
/>
<circle fill="#7c8b9e" cx="154.22" cy="101.19" r="0.72"/>
<path fill="#ad6990" d="
  M 57.27 102.47
  L 60.14 103.30
  Q 57.17 106.45 58.74 108.17
  L 50.20 106.29
  Q 50.09 103.82 52.46 100.98
  L 57.27 102.47
  Z"
/>
<path fill="#7c8b9e" d="
  M 177.39 102.74
  A 0.31 0.28 -39.5 0 1 177.47 102.20
  Q 178.05 102.00 178.39 102.18
  A 0.37 0.33 -35.0 0 1 178.24 102.82
  Q 177.80 102.93 177.39 102.74
  Z"
/>
<path fill="#ce5a62" d="
  M 68.21 104.97
  L 67.81 108.67
  L 58.74 108.17
  Q 57.17 106.45 60.14 103.30
  L 68.21 104.97
  Z"
/>
<path fill="#3d1745" d="
  M 26.56 106.18
  Q 26.86 105.88 27.46 105.86
  A 0.25 0.25 0.0 0 1 27.69 106.24
  Q 27.38 106.75 26.77 106.72
  A 0.31 0.31 0.0 0 1 26.56 106.18
  Z"
/>
<path fill="#812940" d="
  M 100.07 105.64
  Q 99.85 107.22 100.50 108.31
  A 0.60 0.59 -20.1 0 1 100.08 109.20
  L 87.19 111.20
  A 0.39 0.39 0.0 0 0 87.18 111.97
  C 90.41 112.56 93.04 111.34 96.31 111.03
  Q 99.35 110.75 102.48 110.05
  Q 102.05 111.83 100.67 112.54
  C 98.81 112.80 97.42 113.19 95.42 113.01
  Q 93.11 112.80 89.63 113.52
  Q 86.98 114.07 76.05 114.18
  Q 75.36 114.19 73.91 113.73
  A 2.22 2.07 53.3 0 0 73.30 113.62
  L 64.65 113.40
  Q 62.50 111.93 62.52 110.50
  L 66.98 110.44
  A 2.24 2.23 -32.9 0 1 67.97 110.65
  Q 70.27 111.75 73.28 111.87
  A 0.24 0.24 0.0 0 0 73.36 111.40
  Q 71.08 110.73 70.92 109.20
  Q 85.75 109.70 100.07 105.64
  Z"
/>
<path fill="#210f2d" d="
  M 121.49 113.97
  L 118.17 115.06
  Q 116.22 113.46 112.79 113.71
  A 0.21 0.21 0.0 0 1 112.71 113.30
  L 122.30 109.86
  Q 127.85 109.61 132.87 106.94
  A 0.32 0.32 0.0 0 1 133.30 107.06
  L 133.42 107.28
  A 0.17 0.16 58.2 0 1 133.38 107.49
  Q 127.76 111.41 121.49 113.97
  Z"
/>
<path fill="#3d1745" d="
  M 62.52 110.50
  Q 62.50 111.93 64.65 113.40
  Q 54.14 112.61 44.54 108.35
  A 0.24 0.23 -67.3 0 1 44.42 108.04
  L 44.42 108.03
  A 0.26 0.24 18.8 0 1 44.73 107.89
  Q 50.92 109.75 52.88 109.87
  Q 57.73 110.18 62.52 110.50
  Z"
/>
<path fill="#fffffa" d="
  M 164.03 113.14
  Q 163.93 113.14 163.41 111.76
  A 0.62 0.59 13.7 0 0 163.26 111.52
  L 162.70 110.94
  A 0.59 0.59 0.0 0 1 162.87 110.01
  Q 163.75 109.57 163.92 108.63
  A 0.16 0.07 -11.2 0 1 164.04 108.55
  Q 164.07 108.54 164.09 108.54
  Q 164.12 108.54 164.14 108.55
  A 0.16 0.07 12.6 0 1 164.26 108.63
  Q 164.41 109.58 165.28 110.04
  A 0.59 0.59 0.0 0 1 165.42 110.97
  L 164.85 111.54
  A 0.62 0.59 -12.3 0 0 164.69 111.78
  Q 164.14 113.14 164.03 113.14
  Z"
/>
<path fill="#7c8b9e" d="
  M 34.10 112.70
  A 0.72 0.70 -41.4 0 1 35.44 112.77
  Q 35.52 113.07 35.31 113.49
  A 0.69 0.67 -43.9 0 1 34.07 113.49
  Q 33.92 113.14 34.10 112.70
  Z"
/>
<path fill="#7c8b9e" d="
  M 142.89 113.53
  A 0.35 0.31 -47.6 0 1 142.26 113.59
  Q 142.22 113.45 142.34 113.26
  A 0.21 0.20 23.1 0 1 142.57 113.17
  Q 142.96 113.27 142.89 113.53
  Z"
/>
<path fill="#050b29" d="
  M 121.49 113.97
  Q 123.84 115.52 126.38 115.93
  A 0.51 0.51 0.0 0 1 126.51 116.89
  C 114.42 122.44 101.97 124.27 88.86 120.59
  A 0.31 0.31 0.0 0 1 88.72 120.08
  L 90.73 117.90
  Q 95.16 118.30 99.61 119.07
  Q 105.41 120.06 112.76 116.35
  Q 114.81 116.63 118.17 115.06
  L 121.49 113.97
  Z"
/>
<path fill="#210f2d" d="
  M 95.59 115.80
  Q 103.81 117.09 112.76 116.35
  Q 105.41 120.06 99.61 119.07
  Q 95.16 118.30 90.73 117.90
  L 86.35 117.19
  A 0.34 0.34 0.0 0 1 86.37 116.52
  L 95.59 115.80
  Z"
/>
<ellipse fill="#7c8b9e" cx="0.00" cy="0.00" transform="translate(58.43,121.43) rotate(-42.4)" rx="0.48" ry="0.35"/>
<path fill="#7c8b9e" d="
  M 23.17 122.11
  A 0.69 0.61 -86.2 0 1 23.86 123.00
  Q 23.68 123.60 22.91 123.28
  A 0.64 0.50 24.8 0 1 22.52 122.52
  Q 22.68 122.23 23.17 122.11
  Z"
/>
<path fill="#7c8b9e" d="
  M 44.99 123.44
  Q 45.05 123.66 44.75 123.72
  Q 44.20 123.83 44.21 123.49
  A 0.41 0.38 39.4 0 1 44.99 123.44
  Z"
/>
<path fill="#7c8b9e" d="
  M 134.11 124.38
  Q 134.02 123.92 134.37 123.51
  A 0.46 0.26 75.4 0 1 134.85 124.00
  Q 134.86 124.30 134.76 124.48
  A 0.35 0.35 0.0 0 1 134.11 124.38
  Z"
/>
<circle fill="#7c8b9e" cx="153.70" cy="124.20" r="0.62"/>
<path fill="#7c8b9e" d="
  M 168.49 129.61
  Q 168.93 129.68 168.84 130.16
  Q 168.74 130.69 168.46 130.77
  A 0.59 0.50 -72.2 0 1 168.05 129.79
  Q 168.26 129.58 168.49 129.61
  Z"
/>
<ellipse fill="#7c8b9e" cx="0.00" cy="0.00" transform="translate(114.52,130.27) rotate(-91.1)" rx="0.56" ry="0.40"/>
<path fill="#3d1745" d="
  M 53.89 130.51
  A 0.35 0.32 -48.5 0 1 53.24 130.58
  Q 53.22 130.51 53.34 130.26
  A 0.18 0.17 -64.2 0 1 53.58 130.17
  Q 53.91 130.35 53.89 130.51
  Z"
/>
<path fill="#7c8b9e" d="
  M 94.60 131.16
  Q 94.78 131.24 94.85 131.43
  A 0.30 0.29 -0.5 0 1 94.47 131.80
  Q 94.27 131.73 94.20 131.55
  A 0.31 0.29 -87.8 0 1 94.60 131.16
  Z"
/>
<path fill="#3d1745" d="
  M 73.75 131.35
  Q 74.01 131.84 73.80 132.17
  A 0.35 0.35 0.0 0 1 73.16 132.05
  Q 73.11 131.76 73.15 131.60
  A 0.41 0.29 -58.2 0 1 73.75 131.35
  Z"
/>
<path fill="#fffffa" d="
  M 71.61 146.54
  A 0.50 0.49 67.5 0 1 71.33 147.23
  L 68.45 148.20
  A 0.81 0.80 62.0 0 1 67.56 147.92
  C 63.95 143.13 58.44 145.28 57.87 150.82
  C 57.54 153.99 58.67 157.93 62.28 158.42
  Q 66.49 158.98 67.83 154.99
  A 0.40 0.40 0.0 0 0 67.45 154.47
  L 63.97 154.47
  A 0.39 0.39 0.0 0 1 63.58 154.08
  L 63.58 151.37
  A 0.38 0.38 0.0 0 1 63.96 150.99
  L 71.77 150.99
  A 0.66 0.66 0.0 0 1 72.43 151.66
  C 72.36 157.48 69.29 162.13 63.13 162.17
  C 54.37 162.23 51.07 151.33 55.75 145.21
  C 59.84 139.84 68.50 140.37 71.61 146.54
  Z"
/>
<path fill="#fffffa" d="
  M 85.3374 141.4608
  A 10.43 9.67 -89.3 0 1 94.8793 152.0081
  A 10.43 9.67 -89.3 0 1 85.0826 162.3192
  A 10.43 9.67 -89.3 0 1 75.5407 151.7719
  A 10.43 9.67 -89.3 0 1 85.3374 141.4608
  Z
  M 85.2775 145.0802
  A 6.81 5.75 -89.6 0 0 79.4801 151.8499
  A 6.81 5.75 -89.6 0 0 85.1825 158.6998
  A 6.81 5.75 -89.6 0 0 90.9799 151.9301
  A 6.81 5.75 -89.6 0 0 85.2775 145.0802
  Z"
/>
<path fill="#fffffa" d="
  M 30.74 151.82
  Q 30.74 152.41 30.63 152.95
  A 0.73 0.72 5.6 0 1 29.91 153.53
  L 23.98 153.53
  A 0.40 0.40 0.0 0 0 23.58 153.93
  L 23.58 157.79
  A 0.39 0.38 -0.0 0 0 23.97 158.17
  L 31.51 158.17
  A 0.48 0.47 90.0 0 1 31.98 158.65
  L 31.98 161.38
  A 0.48 0.48 0.0 0 1 31.50 161.86
  L 20.55 161.81
  A 0.73 0.73 0.0 0 1 19.83 161.17
  Q 19.81 161.02 19.78 151.85
  Q 19.76 142.69 19.78 142.53
  A 0.73 0.73 0.0 0 1 20.50 141.89
  L 31.45 141.79
  A 0.48 0.48 0.0 0 1 31.93 142.27
  L 31.95 145.00
  A 0.48 0.47 89.7 0 1 31.48 145.48
  L 23.94 145.52
  A 0.39 0.38 -0.3 0 0 23.55 145.90
  L 23.57 149.76
  A 0.40 0.40 0.0 0 0 23.97 150.16
  L 29.90 150.13
  A 0.73 0.72 -5.9 0 1 30.62 150.70
  Q 30.74 151.25 30.74 151.82
  Z"
/>
<path fill="#fffffa" d="
  M 51.06 161.67
  A 0.12 0.11 75.8 0 1 50.96 161.84
  L 47.08 161.84
  A 0.38 0.36 74.2 0 1 46.76 161.65
  L 43.12 155.36
  A 1.52 1.51 30.0 0 0 40.30 156.11
  L 40.30 161.31
  A 0.52 0.52 0.0 0 1 39.78 161.84
  L 37.07 161.84
  A 0.54 0.54 0.0 0 1 36.53 161.30
  L 36.51 142.50
  A 0.63 0.63 0.0 0 1 37.15 141.86
  C 42.13 141.82 48.52 140.68 50.10 146.25
  Q 51.50 151.22 47.16 154.06
  A 0.47 0.46 -31.6 0 0 47.01 154.68
  L 51.06 161.67
  Z
  M 40.14 145.78
  L 40.14 150.96
  A 0.40 0.40 0.0 0 0 40.55 151.35
  L 43.33 151.35
  A 3.32 2.85 -0.1 0 0 46.64 148.49
  L 46.64 148.21
  A 3.32 2.85 -0.1 0 0 43.31 145.37
  L 40.53 145.37
  A 0.40 0.40 0.0 0 0 40.14 145.78
  Z"
/>
<path fill="#fffffa" d="
  M 110.82 143.80
  A 0.76 0.76 0.0 0 1 110.95 144.82
  L 109.66 146.66
  A 0.74 0.73 -51.8 0 1 108.58 146.79
  Q 106.46 144.94 103.74 145.31
  A 2.13 1.82 -12.5 0 0 101.90 147.75
  C 102.52 149.54 109.09 150.34 110.84 152.39
  C 112.62 154.47 112.46 157.62 110.74 159.70
  C 107.62 163.49 100.67 162.74 97.57 159.21
  A 0.93 0.93 0.0 0 1 97.50 158.06
  L 98.68 156.38
  A 0.74 0.74 0.0 0 1 99.80 156.28
  Q 102.59 158.94 105.93 158.39
  A 2.56 2.22 -8.0 0 0 108.09 155.91
  Q 107.99 155.01 106.56 154.44
  C 103.00 153.01 97.24 152.64 97.97 146.71
  C 98.73 140.46 107.10 140.65 110.82 143.80
  Z"
/>
<path fill="#fffffa" d="
  M 125.91 150.64
  L 125.91 153.55
  A 0.37 0.37 0.0 0 1 125.54 153.92
  L 120.18 153.92
  A 0.37 0.37 0.0 0 0 119.81 154.29
  L 119.81 161.45
  A 0.37 0.37 0.0 0 1 119.44 161.82
  L 116.43 161.82
  A 0.37 0.37 0.0 0 1 116.06 161.45
  L 116.06 142.19
  A 0.37 0.37 0.0 0 1 116.43 141.82
  L 126.98 141.82
  A 0.37 0.37 0.0 0 1 127.35 142.19
  L 127.35 144.98
  A 0.37 0.37 0.0 0 1 126.98 145.35
  L 120.19 145.35
  A 0.37 0.37 0.0 0 0 119.82 145.72
  L 119.82 149.90
  A 0.37 0.37 0.0 0 0 120.19 150.27
  L 125.54 150.27
  A 0.37 0.37 0.0 0 1 125.91 150.64
  Z"
/>
<path fill="#fffffa" d="
  M 137.13 141.82
  Q 138.18 141.82 139.16 141.96
  A 1.08 1.08 0.0 0 1 140.03 142.69
  L 146.29 161.21
  A 0.49 0.48 -9.4 0 1 145.83 161.85
  L 142.83 161.85
  A 0.70 0.69 -9.3 0 1 142.17 161.38
  L 141.15 158.35
  A 0.97 0.97 0.0 0 0 140.21 157.69
  Q 137.91 157.74 137.12 157.74
  Q 136.33 157.74 134.02 157.69
  A 0.97 0.97 0.0 0 0 133.09 158.35
  L 132.06 161.38
  A 0.70 0.69 9.4 0 1 131.40 161.84
  L 128.40 161.84
  A 0.49 0.48 9.5 0 1 127.94 161.20
  L 134.22 142.69
  A 1.08 1.08 0.0 0 1 135.09 141.96
  Q 136.08 141.82 137.13 141.82
  Z
  M 134.21 154.07
  A 0.31 0.31 0.0 0 0 134.50 154.48
  L 139.72 154.48
  A 0.31 0.31 0.0 0 0 140.01 154.07
  L 137.40 146.30
  A 0.31 0.31 0.0 0 0 136.82 146.30
  L 134.21 154.07
  Z"
/>
<path fill="#fffffa" d="
  M 168.28 151.88
  Q 168.26 142.72 168.28 142.57
  A 0.73 0.73 0.0 0 1 169.00 141.93
  L 179.93 141.83
  A 0.48 0.48 0.0 0 1 180.41 142.30
  L 180.42 145.03
  A 0.48 0.47 89.7 0 1 179.96 145.51
  L 172.43 145.55
  A 0.39 0.38 -0.3 0 0 172.04 145.93
  L 172.06 149.78
  A 0.40 0.40 0.0 0 0 172.46 150.18
  L 178.38 150.15
  A 0.73 0.72 -5.9 0 1 179.10 150.73
  Q 179.22 151.27 179.22 151.84
  Q 179.22 152.42 179.11 152.97
  A 0.73 0.72 5.6 0 1 178.39 153.55
  L 172.47 153.55
  A 0.40 0.40 0.0 0 0 172.07 153.95
  L 172.07 157.80
  A 0.39 0.38 -0.0 0 0 172.46 158.18
  L 179.99 158.18
  A 0.48 0.47 90.0 0 1 180.46 158.66
  L 180.46 161.38
  A 0.48 0.48 0.0 0 1 179.98 161.86
  L 169.05 161.82
  A 0.73 0.73 0.0 0 1 168.33 161.18
  Q 168.31 161.03 168.28 151.88
  Z"
/>
<path fill="#fffffa" d="
  M 164.32 161.66
  A 0.12 0.11 75.9 0 1 164.22 161.83
  L 160.36 161.83
  A 0.38 0.36 74.2 0 1 160.04 161.64
  L 156.43 155.38
  A 1.51 1.50 30.0 0 0 153.62 156.13
  L 153.62 161.30
  A 0.52 0.52 0.0 0 1 153.10 161.82
  L 150.41 161.82
  A 0.54 0.54 0.0 0 1 149.87 161.28
  L 149.87 142.59
  A 0.63 0.63 0.0 0 1 150.50 141.96
  C 155.45 141.92 161.81 140.79 163.37 146.33
  Q 164.76 151.27 160.45 154.09
  A 0.46 0.46 0.0 0 0 160.30 154.71
  L 164.32 161.66
  Z
  M 153.43 145.71
  L 153.37 150.93
  A 0.40 0.40 0.0 0 0 153.76 151.33
  L 156.64 151.37
  A 3.22 2.89 0.7 0 0 159.90 148.52
  L 159.90 148.28
  A 3.22 2.89 0.7 0 0 156.72 145.35
  L 153.84 145.32
  A 0.40 0.40 0.0 0 0 153.43 145.71
  Z"
/>
<ellipse fill="#030914" cx="0.00" cy="0.00" transform="translate(85.23,151.89) rotate(-89.6)" rx="6.81" ry="5.75"/>
<path fill="#030914" d="
  M 40.14 145.78
  A 0.40 0.40 0.0 0 1 40.53 145.37
  L 43.31 145.37
  A 3.32 2.85 -0.1 0 1 46.64 148.21
  L 46.64 148.49
  A 3.32 2.85 -0.1 0 1 43.33 151.35
  L 40.55 151.35
  A 0.40 0.40 0.0 0 1 40.14 150.96
  L 40.14 145.78
  Z"
/>
<path fill="#030914" d="
  M 153.43 145.71
  A 0.40 0.40 0.0 0 1 153.84 145.32
  L 156.72 145.35
  A 3.22 2.89 0.7 0 1 159.90 148.28
  L 159.90 148.52
  A 3.22 2.89 0.7 0 1 156.64 151.37
  L 153.76 151.33
  A 0.40 0.40 0.0 0 1 153.37 150.93
  L 153.43 145.71
  Z"
/>
<path fill="#030914" d="
  M 134.21 154.07
  L 136.82 146.30
  A 0.31 0.31 0.0 0 1 137.40 146.30
  L 140.01 154.07
  A 0.31 0.31 0.0 0 1 139.72 154.48
  L 134.50 154.48
  A 0.31 0.31 0.0 0 1 134.21 154.07
  Z"
/>
</svg>
